<?xml version="1.0" encoding="UTF-8"?>
<svg version="1.1" viewBox="0 0 9.1705 1.8265" xmlns="http://www.w3.org/2000/svg">
    <g transform="translate(.31858 .34625)">
        <rect x="-.31858" y="-.34625" width="9.1705" height="1.8265"/>
        <path d="m0.2955 0.969v-0.816c0-0.06 0.0645-0.0945 0.0645-0.126 0-0.0135-0.012-0.0255-0.033-0.0255h-0.264c-0.021 0-0.033 0.012-0.033 0.0255 0 0.0315 0.0645 0.066 0.0645 0.126v0.8295c0 0.06-0.0645 0.0945-0.0645 0.126 0 0.0135 0.012 0.0255 0.033 0.0255h0.474c0.036 0 0.051-0.015 0.051-0.051v-0.3165c0-0.0165-0.0135-0.0285-0.0255-0.0285-0.018 0-0.135 0.0795-0.159 0.0975-0.012 9e-3 -0.0165 0.0165-0.0165 0.039v0.0945zm0.42894-0.831c0-0.042 0.048-0.0795 0.048-0.111 0-0.0135-0.012-0.0255-0.033-0.0255h-0.2835c-0.021 0-0.033 0.012-0.033 0.0255 0 0.0315 0.054 0.0735 0.081 0.129 0.084 0.1725 0.2145 0.45 0.225 0.483v0.3435c0 0.06-0.0645 0.0945-0.0645 0.126 0 0.0135 0.012 0.0255 0.033 0.0255h0.264c0.021 0 0.033-0.012 0.033-0.0255 0-0.0315-0.0645-0.066-0.0645-0.126v-0.3435c0.0105-0.033 0.141-0.3105 0.225-0.483 0.027-0.0555 0.081-0.0975 0.081-0.129 0-0.0135-0.012-0.0255-0.033-0.0255h-0.2835c-0.021 0-0.033 0.012-0.033 0.0255 0 0.0315 0.048 0.069 0.048 0.111l-0.105 0.246zm1.0004 0.0285c0.015 0 0.021 6e-3 0.021 0.0195v0.255c0 0.0105-3e-3 0.0225-0.036 0.045l-0.1485 0.102v-0.4215zm0.2205 0.8325c-0.0105-0.0195-0.0735-0.1785-0.135-0.3555 0.069-0.0435 0.1365-0.0825 0.1365-0.147v-0.3525c0-0.099-0.063-0.144-0.1635-0.144l-0.4545 0.0015c-0.021 0-0.033 0.012-0.033 0.0255 0 0.0315 0.0645 0.066 0.0645 0.126v0.8295c0 0.06-0.0645 0.0945-0.0645 0.126 0 0.0135 0.012 0.0255 0.033 0.0255h0.264c0.021 0 0.033-0.012 0.033-0.0255 0-0.0315-0.0645-0.066-0.0645-0.126v-0.168c0-9e-3 0.0015-0.0135 6e-3 -0.0165l0.0555-0.0345s0.105 0.2685 0.105 0.285c0 0.033-0.0345 0.0375-0.0345 0.06 0 0.0135 0.0135 0.0255 0.0345 0.0255h0.2595c0.0165 0 0.0315-0.012 0.0315-0.0255 0-0.033-0.0285-0.03-0.0735-0.1095zm0.39894-0.846c0-0.06 0.0645-0.0945 0.0645-0.126 0-0.0135-0.012-0.0255-0.033-0.0255h-0.264c-0.021 0-0.033 0.012-0.033 0.0255 0 0.0315 0.0645 0.066 0.0645 0.126v0.8295c0 0.06-0.0645 0.0945-0.0645 0.126 0 0.0135 0.012 0.0255 0.033 0.0255h0.264c0.021 0 0.033-0.012 0.033-0.0255 0-0.0315-0.0645-0.066-0.0645-0.126zm0.74092 0.564c0-0.0165-0.0135-0.0285-0.0255-0.0285-0.018 0-0.135 0.0795-0.159 0.0975-0.012 9e-3 -0.0165 0.0165-0.0165 0.039v0.1245c0 0.0105-9e-3 0.0195-0.0195 0.0195h-0.1305c-0.0105 0-0.0195-9e-3 -0.0195-0.0195v-0.7635c0-0.0105 9e-3 -0.0195 0.0195-0.0195h0.1155c0.0105 0 0.0195 9e-3 0.0195 0.0195v0.1905c0 0.0165 0.0135 0.0285 0.0255 0.0285 0.018 0 0.135-0.0795 0.159-0.0975 0.012-9e-3 0.0165-0.0165 0.0165-0.039v-0.144c0-0.0615-0.06-0.123-0.1485-0.123h-0.2655c-0.081 0-0.1425 0.0405-0.1425 0.1155v0.9015c0 0.075 0.0615 0.1155 0.1425 0.1155h0.2805c0.0915 0 0.1485-0.0645 0.1485-0.1215zm0.85643-0.4005c0 0.0165 0.0135 0.0285 0.0255 0.0285 0.018 0 0.135-0.0795 0.159-0.0975 0.012-9e-3 0.0165-0.0165 0.0165-0.039v-0.156c0-0.036-0.015-0.051-0.051-0.051h-0.507c-0.021 0-0.033 0.012-0.033 0.0255 0 0.0315 0.0645 0.066 0.0645 0.126v0.8295c0 0.06-0.0645 0.0945-0.0645 0.126 0 0.0135 0.012 0.0255 0.033 0.0255h0.264c0.021 0 0.033-0.012 0.033-0.0255 0-0.0315-0.0645-0.066-0.0645-0.126v-0.228l0.1725-0.1095c0.0225-0.0135 0.0285-0.0255 0.0285-0.051v-0.138c0-0.0165-0.0105-0.0315-0.0285-0.0315-0.012 0-0.0255 6e-3 -0.039 0.015l-0.1335 0.084v-0.357h0.1245zm0.54144-0.1635c0-0.06 0.0645-0.0945 0.0645-0.126 0-0.0135-0.012-0.0255-0.033-0.0255h-0.264c-0.021 0-0.033 0.012-0.033 0.0255 0 0.0315 0.0645 0.066 0.0645 0.126v0.8295c0 0.06-0.0645 0.0945-0.0645 0.126 0 0.0135 0.012 0.0255 0.033 0.0255h0.264c0.021 0 0.033-0.012 0.033-0.0255 0-0.0315-0.0645-0.066-0.0645-0.126zm0.41992 0.981c0.024 0 0.042-0.015 0.042-0.0375 0-0.0345-0.0645-0.0705-0.0645-0.102v-0.4935l0.303 0.591c0.0135 0.027 0.024 0.042 0.0645 0.042h0.0945c0.033 0 0.054-0.021 0.054-0.0525v-0.9285c0-0.06 0.0645-0.0945 0.0645-0.126 0-0.0135-0.012-0.0255-0.033-0.0255h-0.2565c-0.021 0-0.033 0.012-0.033 0.0255 0 0.0315 0.0645 0.066 0.0645 0.126v0.531l-0.3015-0.636c-9e-3 -0.021-0.0195-0.0465-0.066-0.0465h-0.18c-0.021 0-0.033 0.012-0.033 0.0255 0 0.0315 0.0645 0.066 0.0645 0.126v0.8295c0 0.06-0.0645 0.0945-0.0645 0.126 0 0.0135 0.012 0.0255 0.033 0.0255zm0.8985-0.165v-0.8025h0.1425c0.012 0 0.021 9e-3 0.021 0.021v0.7605c0 0.018-0.0045 0.021-0.021 0.021zm0.222 0.165c0.081 0 0.1425-0.0405 0.1425-0.117v-0.873c0-0.0915-0.0525-0.1425-0.1635-0.1425h-0.4335c-0.021 0-0.033 0.012-0.033 0.0255 0 0.0315 0.0645 0.066 0.0645 0.126v0.8295c0 0.06-0.0645 0.0945-0.0645 0.126 0 0.0135 0.012 0.0255 0.033 0.0255zm0.77544 0c0.036 0 0.051-0.015 0.051-0.051v-0.3165c0-0.0165-0.0135-0.0285-0.0255-0.0285-0.018 0-0.135 0.0795-0.159 0.0975-0.012 9e-3 -0.0165 0.0165-0.0165 0.039v0.0945h-0.123c-0.0105 0-0.0195-0.0075-0.0195-0.018v-0.168l0.1725-0.1095c0.0225-0.0135 0.0285-0.0255 0.0285-0.051v-0.138c0-0.0165-0.0105-0.0315-0.0285-0.0315-0.012 0-0.0255 6e-3 -0.039 0.015l-0.1335 0.084v-0.3675c0-9e-3 9e-3 -0.018 0.0195-0.018h0.123v0.165c0 0.0165 0.0135 0.0285 0.0255 0.0285 0.018 0 0.135-0.0795 0.159-0.0975 0.012-9e-3 0.0165-0.0165 0.0165-0.039v-0.171c0-0.036-0.015-0.051-0.051-0.051h-0.525c-0.021 0-0.033 0.012-0.033 0.0255 0 0.0315 0.0645 0.066 0.0645 0.126v0.8295c0 0.06-0.0645 0.0945-0.0645 0.126 0 0.0135 0.012 0.0255 0.033 0.0255zm0.58491-0.9675c0.015 0 0.021 6e-3 0.021 0.0195v0.255c0 0.0105-3e-3 0.0225-0.036 0.045l-0.1485 0.102v-0.4215zm0.2205 0.8325c-0.0105-0.0195-0.0735-0.1785-0.135-0.3555 0.069-0.0435 0.1365-0.0825 0.1365-0.147v-0.3525c0-0.099-0.063-0.144-0.1635-0.144l-0.4545 0.0015c-0.021 0-0.033 0.012-0.033 0.0255 0 0.0315 0.0645 0.066 0.0645 0.126v0.8295c0 0.06-0.0645 0.0945-0.0645 0.126 0 0.0135 0.012 0.0255 0.033 0.0255h0.264c0.021 0 0.033-0.012 0.033-0.0255 0-0.0315-0.0645-0.066-0.0645-0.126v-0.168c0-9e-3 0.0015-0.0135 6e-3 -0.0165l0.0555-0.0345s0.105 0.2685 0.105 0.285c0 0.033-0.0345 0.0375-0.0345 0.06 0 0.0135 0.0135 0.0255 0.0345 0.0255h0.2595c0.0165 0 0.0315-0.012 0.0315-0.0255 0-0.033-0.0285-0.03-0.0735-0.1095z" fill="#fff"/>
        <g clip-path="url(#b)">
            <g clip-path="url(#a)">
                <path d="m8.2656 0.65645s-0.0091594 0.020433-0.031388 0.017876c-0.022229-0.0025573-0.0239-0.028129-0.037867-0.041899-0.013966-0.01377-0.032848-0.016725-0.047355 0.011353-0.013446 0.026026-0.0050203 0.058573 0.0055511 0.087575 0.012551 0.034434 0.038369 0.059044-9.5348e-4 0.10076-0.041867 0.044408-0.060207 0.079812-0.060742 0.1357-6.8541e-4 0.072093 0.028393 0.12567 0.085092 0.15954 0.055634 0.033232 0.18902 0.056567 0.28439 6.3591e-4 0.095129-0.055786 0.092294-0.19116 0.0055358-0.27637-0.056562-0.055553-0.031769-0.071321-0.0203-0.10747 0.012596-0.039697 0.025132-0.09125-0.014123-0.11349-0.02672-0.015141-0.03605 0.0058496-0.043303 0.0215-0.012742 0.027493-0.042648 0.030074-0.055336 0.012577-0.0072204-0.009956-0.010162-0.021921-0.010162-0.021921z" fill="#3361e1"/>
            </g>
            <g clip-path="url(#a)">
                <path d="m8.392 0.84953s-0.0054109 0.006778-0.01011 1.5231e-4c-0.0046989-0.0066256 0.0056722-0.014402 0.01297-0.0052838 0.026434 0.033029 0.017135 0.042589 0.039318 0.065924 0.0014424 0.0015178 0.0026289 0.0010822 0.0024759 0.0035672-7.8442e-4 0.012694-0.0063477 0.040231 0.018716 0.075444 0.0038215-0.0094891 0.017516-0.0080079 0.019319 0.0043059 0.0014912 0.010187-0.0088608 0.01274-0.014429 0.012046-0.018125-0.0022558-0.022408-0.050548-0.048024-0.076127-0.0018643-0.0018613-4.4933e-4 -0.0027523-1.5688e-4 -0.0053036 0.0021895-0.019073 0.0030295-0.038557-0.02008-0.074725z" fill="#51a8db"/>
            </g>
            <g clip-path="url(#a)">
                <path d="m8.2112 0.84953s0.0054109 0.006778 0.01011 1.5231e-4c0.0046989-0.0066256-0.0056722-0.014402-0.01297-0.0052838-0.026435 0.033029-0.017135 0.042588-0.039318 0.065924-0.0014424 0.0015178-0.0026289 0.0010822-0.0024759 0.0035672 7.8442e-4 0.012694 0.0063477 0.040231-0.018716 0.075444-0.0038215-0.0094891-0.017516-0.0080079-0.019319 0.0043059-0.0014912 0.010187 0.0088608 0.01274 0.014428 0.012046 0.018125-0.0022558 0.022408-0.050548 0.048025-0.076127 0.0018643-0.0018613 4.4933e-4 -0.0027523 1.5688e-4 -0.0053036-0.0021895-0.019073-0.0030295-0.038557 0.02008-0.074725z" fill="#51a8db"/>
            </g>
            <g clip-path="url(#a)">
                <path d="m8.2436 0.92853c0-0.005385 0.001466-0.0097481 0.0032747-0.0097481h0.10268c0.001808 0 0.0032747 0.0043661 0.0032747 0.0097481 0 0.005382-0.001466 0.0097481-0.0032747 0.0097481h-0.10268c-0.0018087 3.0463e-6 -0.0032747-0.004363-0.0032747-0.0097481z" fill="#51a8db"/>
            </g>
            <g clip-path="url(#a)">
                <path d="m8.2509 0.88517c4.2057e-7 -0.0042764 0.0034672-0.0077429 0.0077436-0.0077429h0.075115c0.0042763 1e-16 0.0077429 0.0034666 0.0077429 0.0077429 0 0.0042763-0.0034666 0.0077429-0.0077429 0.0077429h-0.075118c-0.0042752-1.6818e-6 -0.0077402-0.0034677-0.0077406-0.0077429z" fill="#51a8db"/>
            </g>
            <g clip-path="url(#a)">
                <path d="m8.253 0.81372h0.088666c9.0023e-4 -1e-16 0.0017636 3.5761e-4 0.0024001 9.9417e-4 6.3656e-4 6.3656e-4 9.9417e-4 0.0014999 9.9417e-4 0.0024001v0.040384c0 9.0043e-4 -3.5769e-4 0.001764-9.9439e-4 0.0024007-6.367e-4 6.367e-4 -0.0015002 9.9439e-4 -0.0024007 9.9439e-4h-0.088666c-9.0023e-4 2e-16 -0.0017636-3.5761e-4 -0.0024001-9.9417e-4 -6.3656e-4 -6.3656e-4 -9.9417e-4 -0.0014999-9.9417e-4 -0.0024001v-0.040385c0-9.0023e-4 3.5761e-4 -0.0017636 9.9417e-4 -0.0024001 6.3656e-4 -6.3656e-4 0.0014999-9.9417e-4 0.0024001-9.9417e-4z" fill="#51a8db"/>
            </g>
            <g clip-path="url(#a)">
                <path d="m8.2616 0.81671h0.071355c0.0011247 0 0.0020364 9.1174e-4 0.0020364 0.0020364v0.037129c0 0.0011247-9.1174e-4 0.0020364-0.0020364 0.0020364h-0.071355c-0.0011247 0-0.0020364-9.1174e-4 -0.0020364-0.0020364v-0.037129c0-0.0011247 9.1174e-4 -0.0020364 0.0020364-0.0020364z" fill="#3361e1"/>
            </g>
            <g clip-path="url(#a)">
                <path d="m8.2727 0.84726c0 0.0021043-0.0017059 0.0038101-0.0038101 0.0038101s-0.0038101-0.0017059-0.0038101-0.0038101c0-0.0021043 0.0017059-0.0038101 0.0038101-0.0038101s0.0038101 0.0017059 0.0038101 0.0038101z" fill="#51a8db"/>
            </g>
            <g clip-path="url(#a)">
                <path d="m8.2831 0.84726c0 0.002103-0.0017048 0.0038078-0.0038078 0.0038078s-0.0038078-0.0017048-0.0038078-0.0038078c0-0.002103 0.0017048-0.0038078 0.0038078-0.0038078s0.0038078 0.0017048 0.0038078 0.0038078z" fill="#51a8db"/>
            </g>
            <g clip-path="url(#a)">
                <path d="m8.2941 0.84726c0 0.0021043-0.0017059 0.0038101-0.0038101 0.0038101-0.0021043 0-0.0038101-0.0017059-0.0038101-0.0038101 0-0.0021043 0.0017059-0.0038101 0.0038101-0.0038101 0.0021043 0 0.0038101 0.0017059 0.0038101 0.0038101z" fill="#51a8db"/>
            </g>
            <g clip-path="url(#a)">
                <path d="m8.3059 0.84726c0 0.002103-0.0017048 0.0038078-0.0038078 0.0038078-0.002103 0-0.0038078-0.0017048-0.0038078-0.0038078 0-0.002103 0.0017048-0.0038078 0.0038078-0.0038078 0.002103 0 0.0038078 0.0017048 0.0038078 0.0038078z" fill="#51a8db"/>
            </g>
            <g clip-path="url(#a)">
                <path d="m8.3177 0.84726c0 0.0021043-0.0017059 0.0038101-0.0038101 0.0038101-0.0021043 0-0.0038101-0.0017059-0.0038101-0.0038101 0-0.0021043 0.0017059-0.0038101 0.0038101-0.0038101 0.0021043 0 0.0038101 0.0017059 0.0038101 0.0038101z" fill="#51a8db"/>
            </g>
            <g clip-path="url(#a)">
                <path d="m8.3288 0.84726c0 0.0021043-0.0017059 0.0038101-0.0038101 0.0038101-0.0021043 0-0.0038101-0.0017059-0.0038101-0.0038101 0-0.0021043 0.0017059-0.0038101 0.0038101-0.0038101 0.0021043 0 0.0038101 0.0017059 0.0038101 0.0038101z" fill="#51a8db"/>
            </g>
            <g clip-path="url(#a)">
                <path d="m8.253 0.69565h0.088666c0.0018746 0 0.0033943 0.0015197 0.0033943 0.0033943v0.040385c0 0.0018746-0.0015197 0.0033943-0.0033943 0.0033943h-0.088666c-0.001875 2e-16 -0.0033951-0.00152-0.0033951-0.0033951v-0.040384c0-9.0043e-4 3.5769e-4 -0.001764 9.9439e-4 -0.0024007 6.367e-4 -6.367e-4 0.0015002-9.9439e-4 0.0024007-9.9439e-4z" fill="#51a8db"/>
            </g>
            <g clip-path="url(#a)">
                <path d="m8.2616 0.69864h0.071355c0.0011247 0 0.0020364 9.1174e-4 0.0020364 0.0020364v0.037129c0 0.0011247-9.1174e-4 0.0020364-0.0020364 0.0020364h-0.071355c-0.0011247 0-0.0020364-9.1174e-4 -0.0020364-0.0020364v-0.037129c0-0.0011247 9.1174e-4 -0.0020364 0.0020364-0.0020364z" fill="#3361e1"/>
            </g>
            <g clip-path="url(#a)">
                <path d="m8.2727 0.70956c0 0.002103-0.0017048 0.0038078-0.0038078 0.0038078s-0.0038078-0.0017048-0.0038078-0.0038078c0-0.002103 0.0017048-0.0038078 0.0038078-0.0038078s0.0038078 0.0017048 0.0038078 0.0038078z" fill="#51a8db"/>
            </g>
            <g clip-path="url(#a)">
                <path d="m8.2831 0.70956c0 0.002103-0.0017048 0.0038078-0.0038078 0.0038078s-0.0038078-0.0017048-0.0038078-0.0038078c0-0.002103 0.0017048-0.0038078 0.0038078-0.0038078s0.0038078 0.0017048 0.0038078 0.0038078z" fill="#51a8db"/>
            </g>
            <g clip-path="url(#a)">
                <path d="m8.2941 0.70956c0 0.002103-0.0017048 0.0038078-0.0038078 0.0038078-0.002103 0-0.0038078-0.0017048-0.0038078-0.0038078 0-0.002103 0.0017048-0.0038078 0.0038078-0.0038078 0.002103 0 0.0038078 0.0017048 0.0038078 0.0038078z" fill="#51a8db"/>
            </g>
            <g clip-path="url(#a)">
                <path d="m8.3059 0.70956c0 0.002103-0.0017048 0.0038078-0.0038078 0.0038078-0.002103 0-0.0038078-0.0017048-0.0038078-0.0038078 0-0.002103 0.0017048-0.0038078 0.0038078-0.0038078 0.002103 0 0.0038078 0.0017048 0.0038078 0.0038078z" fill="#51a8db"/>
            </g>
            <g clip-path="url(#a)">
                <path d="m8.3167 0.70956c0 0.002103-0.0017048 0.0038078-0.0038078 0.0038078s-0.0038078-0.0017048-0.0038078-0.0038078c0-0.002103 0.0017048-0.0038078 0.0038078-0.0038078s0.0038078 0.0017048 0.0038078 0.0038078z" fill="#51a8db"/>
            </g>
            <g clip-path="url(#a)">
                <path d="m8.3274 0.70956c0 0.002103-0.0017048 0.0038078-0.0038078 0.0038078s-0.0038078-0.0017048-0.0038078-0.0038078c0-0.002103 0.0017048-0.0038078 0.0038078-0.0038078s0.0038078 0.0017048 0.0038078 0.0038078z" fill="#51a8db"/>
            </g>
            <g clip-path="url(#a)">
                <path d="m8.4251 0.98873c0.0043647 0.0059534 0.0030769 0.014318-0.0028765 0.018683-0.0059534 0.0043647-0.014318 0.0030769-0.018683-0.0028765-0.0043647-0.0059534-0.0030769-0.014318 0.0028765-0.018683 0.0059534-0.0043647 0.014318-0.0030769 0.018683 0.0028765z" fill="#51a8db"/>
            </g>
            <g clip-path="url(#a)">
                <path d="m8.4761 0.94085c0.0068074 0.0028554 0.010011 0.010689 0.0071557 0.017496-0.0028554 0.0068074-0.010689 0.010011-0.017496 0.0071557-0.0068074-0.0028554-0.010011-0.010689-0.0071557-0.017496 0.0028554-0.0068074 0.010689-0.010011 0.017496-0.0071557z" fill="#51a8db"/>
            </g>
            <g clip-path="url(#a)">
                <path d="m8.4085 0.94804c0 0.0050384-0.0040844 0.0091228-0.0091228 0.0091228-0.0050384 0-0.0091228-0.0040844-0.0091228-0.0091228s0.0040844-0.0091228 0.0091228-0.0091228c0.0050384 0 0.0091228 0.0040844 0.0091228 0.0091228z" fill="#51a8db"/>
            </g>
            <g clip-path="url(#a)">
                <path d="m8.4037 0.94804c0 0.0023499-0.001905 0.0042549-0.0042549 0.0042549-0.0023499 0-0.0042549-0.001905-0.0042549-0.0042549s0.001905-0.0042549 0.0042549-0.0042549c0.0023499 0 0.0042549 0.001905 0.0042549 0.0042549z" fill="#3361e1"/>
            </g>
            <g clip-path="url(#a)">
                <path d="m8.3996 0.9501-0.0093422 0.0043607s-0.0035954 0.0018955-0.0048855-0.001562c-0.0014683-0.0039358 0.0032557-0.0044742 0.0032557-0.0044742l0.0098471-0.001447s0.0016884-3.4271e-4 0.002092 9.6338e-4c1.7594e-4 4.1316e-4 1.7159e-4 8.8097e-4 -1.1997e-5 0.0012908-1.8359e-4 4.0982e-4 -5.2977e-4 7.2449e-4 -9.5519e-4 8.6826e-4z" fill="#51a8db"/>
            </g>
            <g clip-path="url(#a)">
                <path d="m8.3882 0.95536c-0.0014537 2.9733e-5 -0.0027434-9.2742e-4 -0.0031361-0.0023274-4.557e-4 -9.8451e-4 -4.1382e-4 -0.0021275 1.1271e-4 -0.003076 9.9004e-4 -0.0016115 0.0033562-0.0018986 0.003456-0.00191l0.0098349-0.001447c1.7607e-4 -3.0284e-5 3.5445e-4 -4.5065e-5 5.331e-4 -4.4171e-5 8.7435e-4 -8.6979e-5 0.0016932 4.405e-4 0.0019755 0.0012726 2.1143e-4 5.092e-4 2e-4 0.0010837-3.1531e-5 0.0015841-2.3153e-4 5.0039e-4 -6.6199e-4 8.8097e-4 -0.001187 0.0010494l-0.0092911 0.0043409c-7.0623e-4 3.4766e-4 -0.0014795 5.3786e-4 -0.0022664 5.5747e-4zm0.010803-0.0080414c-1.3578e-4 -9.2835e-7 -2.7137e-4 1.0286e-5 -4.0515e-4 3.3509e-5l-0.0098661 0.001447c-3.2747e-5 0-0.0021156 2.6046e-4 -0.0029077 0.0015551-3.9492e-4 7.5058e-4 -4.1214e-4 0.0016436-4.6456e-5 0.0024088 2.9113e-4 0.0010945 0.0012901 0.0018501 0.0024225 0.0018323 6.693e-4 -2.0188e-5 0.0013267-1.8189e-4 0.0019291-4.7446e-4l0.0093574-0.0043691c3.4375e-4 -1.0151e-4 6.2591e-4 -3.4825e-4 7.7235e-4 -6.754e-4 1.4644e-4 -3.2714e-4 1.425e-4 -7.0196e-4 -1.0784e-5 -0.0010259-1.4774e-4 -4.8436e-4 -5.6965e-4 -7.3187e-4 -0.0012452-7.3187e-4z" fill="#3361e1"/>
            </g>
            <g clip-path="url(#a)">
                <path d="m8.2659 0.88268h0.0049525c0.0012963 0 0.0023472 0.0010509 0.0023472 0.0023472v6.8313e-4c0 0.0012963-0.0010509 0.0023472-0.0023472 0.0023472h-0.0049525c-0.0012963 0-0.0023472-0.0010509-0.0023472-0.0023472v-6.8313e-4c0-0.0012963 0.0010509-0.0023472 0.0023472-0.0023472z" fill="#3361e1"/>
            </g>
            <g clip-path="url(#a)">
                <path d="m8.2768 0.88268h0.0049525c0.0012963 0 0.0023472 0.0010509 0.0023472 0.0023472v6.8313e-4c0 0.0012963-0.0010509 0.0023472-0.0023472 0.0023472h-0.0049525c-0.0012963 0-0.0023472-0.0010509-0.0023472-0.0023472v-6.8313e-4c0-0.0012963 0.0010509-0.0023472 0.0023472-0.0023472z" fill="#3361e1"/>
            </g>
            <g clip-path="url(#a)">
                <path d="m8.2878 0.88268h0.0049517c0.0012963 0 0.0023472 0.0010509 0.0023472 0.0023472v6.8313e-4c0 0.0012963-0.0010509 0.0023472-0.0023472 0.0023472h-0.0049517c-0.0012963 0-0.0023472-0.0010509-0.0023472-0.0023472v-6.8313e-4c0-0.0012963 0.0010509-0.0023472 0.0023472-0.0023472z" fill="#3361e1"/>
            </g>
            <g clip-path="url(#a)">
                <path d="m8.2993 0.88268h0.0049525c0.0012963 0 0.0023472 0.0010509 0.0023472 0.0023472v6.8313e-4c0 0.0012963-0.0010509 0.0023472-0.0023472 0.0023472h-0.0049525c-0.0012963 0-0.0023472-0.0010509-0.0023472-0.0023472v-6.8313e-4c0-0.0012963 0.0010509-0.0023472 0.0023472-0.0023472z" fill="#3361e1"/>
            </g>
            <g clip-path="url(#a)">
                <path d="m8.3114 0.88248h0.0049525c0.0012963 0 0.0023472 0.0010509 0.0023472 0.0023472v6.8313e-4c0 0.0012963-0.0010509 0.0023472-0.0023472 0.0023472h-0.0049525c-0.0012963 0-0.0023472-0.0010509-0.0023472-0.0023472v-6.8313e-4c0-0.0012963 0.0010509-0.0023472 0.0023472-0.0023472z" fill="#3361e1"/>
            </g>
            <g clip-path="url(#a)">
                <path d="m8.3226 0.88268h0.0049525c0.0012963 0 0.0023472 0.0010509 0.0023472 0.0023472v6.8313e-4c0 0.0012963-0.0010509 0.0023472-0.0023472 0.0023472h-0.0049525c-0.0012963 0-0.0023472-0.0010509-0.0023472-0.0023472v-6.8313e-4c0-0.0012963 0.0010509-0.0023472 0.0023472-0.0023472z" fill="#3361e1"/>
            </g>
            <g clip-path="url(#a)">
                <path d="m8.2591 0.88517c0 5.7403e-4 -2.2803e-4 0.0011245-6.3393e-4 0.0015304-4.059e-4 4.059e-4 -9.5642e-4 6.3393e-4 -0.0015304 6.3393e-4 -5.7416e-4 2.0203e-7 -0.0011249-2.2774e-4 -0.0015309-6.3366e-4 -4.0606e-4 -4.0592e-4 -6.342e-4 -9.5655e-4 -6.342e-4 -0.0015307-3.6298e-11 -5.7416e-4 2.2814e-4 -0.0011248 6.342e-4 -0.0015307 4.0606e-4 -4.0592e-4 9.5678e-4 -6.3386e-4 0.0015309-6.3366e-4 5.7403e-4 1.1e-15 0.0011245 2.2803e-4 0.0015304 6.3393e-4 4.059e-4 4.059e-4 6.3393e-4 9.5642e-4 6.3393e-4 0.0015304z" fill="#3361e1"/>
            </g>
            <g clip-path="url(#a)">
                <path d="m8.3387 0.88517c0 5.7403e-4 -2.2803e-4 0.0011245-6.3393e-4 0.0015304-4.059e-4 4.059e-4 -9.5642e-4 6.3393e-4 -0.0015304 6.3393e-4 -5.7416e-4 2.0203e-7 -0.0011249-2.2774e-4 -0.0015309-6.3366e-4 -4.0606e-4 -4.0592e-4 -6.342e-4 -9.5655e-4 -6.342e-4 -0.0015307-3.6298e-11 -5.7416e-4 2.2814e-4 -0.0011248 6.342e-4 -0.0015307 4.0606e-4 -4.0592e-4 9.5678e-4 -6.3386e-4 0.0015309-6.3366e-4 5.7403e-4 1.1e-15 0.0011245 2.2803e-4 0.0015304 6.3393e-4 4.059e-4 4.059e-4 6.3393e-4 9.5642e-4 6.3393e-4 0.0015304z" fill="#3361e1"/>
            </g>
            <g clip-path="url(#a)">
                <path d="m8.3321 0.93375h-0.06543c-0.0017093-2.0981e-6 -0.0030944-0.0013872-0.0030965-0.0030965v-0.0048321c2.0981e-6 -0.0017093 0.0013872-0.0030944 0.0030965-0.0030965h0.06543c0.0017093 2.0981e-6 0.0030944 0.0013872 0.0030965 0.0030965v0.0048344c-3.3559e-6 0.0017084-0.0013881 0.0030922-0.0030965 0.0030943zm-0.06543-0.010264c-0.0012889 1.6782e-6 -0.0023333 0.0010461-0.002335 0.002335v0.0048344c1.6782e-6 0.0012889 0.0010461 0.0023333 0.002335 0.002335h0.06543c0.0012889-1.6782e-6 0.0023333-0.0010461 0.002335-0.002335v-0.0048321c-1.6782e-6 -0.0012889-0.0010461-0.0023333-0.002335-0.002335z" fill="#3361e1"/>
            </g>
            <g clip-path="url(#a)">
                <path d="m8.2591 0.92824c0 0.0035882-0.0029088 0.0064969-0.0064969 0.0064969-0.0035882 0-0.0064969-0.0029088-0.0064969-0.0064969 0-0.0035882 0.0029088-0.0064969 0.0064969-0.0064969 0.0035882 0 0.0064969 0.0029088 0.0064969 0.0064969z" fill="#3361e1"/>
            </g>
            <g clip-path="url(#a)">
                <path d="m8.3503 0.92853c0 0.0035882-0.0029088 0.0064969-0.0064969 0.0064969-0.0035882 0-0.0064969-0.0029088-0.0064969-0.0064969 0-0.0035882 0.0029088-0.0064969 0.0064969-0.0064969 0.0035882 0 0.0064969 0.0029088 0.0064969 0.0064969z" fill="#3361e1"/>
            </g>
            <g clip-path="url(#a)">
                <path d="m8.4474 1.0597c0.0052199 0.0052199 0.0052199 0.013683 0 0.018903-0.0052199 0.0052199-0.013683 0.0052199-0.018903 0-0.0052199-0.0052199-0.0052199-0.013683 0-0.018903 0.0052199-0.0052199 0.013683-0.0052199 0.018903-4e-16z" fill="#51a8db"/>
            </g>
            <g clip-path="url(#a)">
                <path d="m8.5009 1.0161c0.0052199 0.0052199 0.0052199 0.013683 0 0.018903-0.0052199 0.0052199-0.013683 0.0052199-0.018903 0-0.0052199-0.0052199-0.0052199-0.013683 0-0.018903 0.0052199-0.0052199 0.013683-0.0052199 0.018903 0z" fill="#51a8db"/>
            </g>
            <g clip-path="url(#a)">
                <path d="m8.2659 0.88268h0.0049525c0.0012963 0 0.0023472 0.0010509 0.0023472 0.0023472v6.8313e-4c0 0.0012963-0.0010509 0.0023472-0.0023472 0.0023472h-0.0049525c-0.0012963 0-0.0023472-0.0010509-0.0023472-0.0023472v-6.8313e-4c0-0.0012963 0.0010509-0.0023472 0.0023472-0.0023472z" fill="#3361e1"/>
            </g>
            <g clip-path="url(#a)">
                <path d="m8.2768 0.88268h0.0049525c0.0012963 0 0.0023472 0.0010509 0.0023472 0.0023472v6.8313e-4c0 0.0012963-0.0010509 0.0023472-0.0023472 0.0023472h-0.0049525c-0.0012963 0-0.0023472-0.0010509-0.0023472-0.0023472v-6.8313e-4c0-0.0012963 0.0010509-0.0023472 0.0023472-0.0023472z" fill="#3361e1"/>
            </g>
            <g clip-path="url(#a)">
                <path d="m8.2878 0.88268h0.0049517c0.0012963 0 0.0023472 0.0010509 0.0023472 0.0023472v6.8313e-4c0 0.0012963-0.0010509 0.0023472-0.0023472 0.0023472h-0.0049517c-0.0012963 0-0.0023472-0.0010509-0.0023472-0.0023472v-6.8313e-4c0-0.0012963 0.0010509-0.0023472 0.0023472-0.0023472z" fill="#3361e1"/>
            </g>
            <g clip-path="url(#a)">
                <path d="m8.2993 0.88268h0.0049525c0.0012963 0 0.0023472 0.0010509 0.0023472 0.0023472v6.8313e-4c0 0.0012963-0.0010509 0.0023472-0.0023472 0.0023472h-0.0049525c-0.0012963 0-0.0023472-0.0010509-0.0023472-0.0023472v-6.8313e-4c0-0.0012963 0.0010509-0.0023472 0.0023472-0.0023472z" fill="#3361e1"/>
            </g>
            <g clip-path="url(#a)">
                <path d="m8.3114 0.88248h0.0049525c0.0012963 0 0.0023472 0.0010509 0.0023472 0.0023472v6.8313e-4c0 0.0012963-0.0010509 0.0023472-0.0023472 0.0023472h-0.0049525c-0.0012963 0-0.0023472-0.0010509-0.0023472-0.0023472v-6.8313e-4c0-0.0012963 0.0010509-0.0023472 0.0023472-0.0023472z" fill="#3361e1"/>
            </g>
            <g clip-path="url(#a)">
                <path d="m8.3226 0.88268h0.0049525c0.0012963 0 0.0023472 0.0010509 0.0023472 0.0023472v6.8313e-4c0 0.0012963-0.0010509 0.0023472-0.0023472 0.0023472h-0.0049525c-0.0012963 0-0.0023472-0.0010509-0.0023472-0.0023472v-6.8313e-4c0-0.0012963 0.0010509-0.0023472 0.0023472-0.0023472z" fill="#3361e1"/>
            </g>
            <g clip-path="url(#a)">
                <path d="m8.2591 0.88517c0 5.7403e-4 -2.2803e-4 0.0011245-6.3393e-4 0.0015304-4.059e-4 4.059e-4 -9.5642e-4 6.3393e-4 -0.0015304 6.3393e-4 -5.7416e-4 2.0203e-7 -0.0011249-2.2774e-4 -0.0015309-6.3366e-4 -4.0606e-4 -4.0592e-4 -6.342e-4 -9.5655e-4 -6.342e-4 -0.0015307-3.6298e-11 -5.7416e-4 2.2814e-4 -0.0011248 6.342e-4 -0.0015307 4.0606e-4 -4.0592e-4 9.5678e-4 -6.3386e-4 0.0015309-6.3366e-4 5.7403e-4 1.1e-15 0.0011245 2.2803e-4 0.0015304 6.3393e-4 4.059e-4 4.059e-4 6.3393e-4 9.5642e-4 6.3393e-4 0.0015304z" fill="#3361e1"/>
            </g>
            <g clip-path="url(#a)">
                <path d="m8.3387 0.88517c0 5.7403e-4 -2.2803e-4 0.0011245-6.3393e-4 0.0015304-4.059e-4 4.059e-4 -9.5642e-4 6.3393e-4 -0.0015304 6.3393e-4 -5.7416e-4 2.0203e-7 -0.0011249-2.2774e-4 -0.0015309-6.3366e-4 -4.0606e-4 -4.0592e-4 -6.342e-4 -9.5655e-4 -6.342e-4 -0.0015307-3.6298e-11 -5.7416e-4 2.2814e-4 -0.0011248 6.342e-4 -0.0015307 4.0606e-4 -4.0592e-4 9.5678e-4 -6.3386e-4 0.0015309-6.3366e-4 5.7403e-4 1.1e-15 0.0011245 2.2803e-4 0.0015304 6.3393e-4 4.059e-4 4.059e-4 6.3393e-4 9.5642e-4 6.3393e-4 0.0015304z" fill="#3361e1"/>
            </g>
            <g clip-path="url(#a)">
                <path d="m8.3321 0.93375h-0.06543c-0.0017093-2.0981e-6 -0.0030944-0.0013872-0.0030965-0.0030965v-0.0048321c2.0981e-6 -0.0017093 0.0013872-0.0030944 0.0030965-0.0030965h0.06543c0.0017093 2.0981e-6 0.0030944 0.0013872 0.0030965 0.0030965v0.0048344c-3.3559e-6 0.0017084-0.0013881 0.0030922-0.0030965 0.0030943zm-0.06543-0.010264c-0.0012889 1.6782e-6 -0.0023333 0.0010461-0.002335 0.002335v0.0048344c1.6782e-6 0.0012889 0.0010461 0.0023333 0.002335 0.002335h0.06543c0.0012889-1.6782e-6 0.0023333-0.0010461 0.002335-0.002335v-0.0048321c-1.6782e-6 -0.0012889-0.0010461-0.0023333-0.002335-0.002335z" fill="#3361e1"/>
            </g>
            <g clip-path="url(#a)">
                <path d="m8.2591 0.92824c0 0.0035882-0.0029088 0.0064969-0.0064969 0.0064969-0.0035882 0-0.0064969-0.0029088-0.0064969-0.0064969 0-0.0035882 0.0029088-0.0064969 0.0064969-0.0064969 0.0035882 0 0.0064969 0.0029088 0.0064969 0.0064969z" fill="#3361e1"/>
            </g>
            <g clip-path="url(#a)">
                <path d="m8.3503 0.92853c0 0.0035882-0.0029088 0.0064969-0.0064969 0.0064969-0.0035882 0-0.0064969-0.0029088-0.0064969-0.0064969 0-0.0035882 0.0029088-0.0064969 0.0064969-0.0064969 0.0035882 0 0.0064969 0.0029088 0.0064969 0.0064969z" fill="#3361e1"/>
            </g>
            <g clip-path="url(#a)">
                <path d="m8.2663 0.6941 0.062525-1.0053e-4s-0.0072707-0.5183-0.0072349-0.53026c3.5794e-5 -0.011958 0.0044704-0.039795 0.02109-0.047733-0.0030006-0.029256 1.2947e-5 -0.072568 0.016763-0.13707 1.5231e-4 -5.9098e-4 -0.0064398 0.0014698-0.012987 0.0016526-0.0091518 2.5589e-4 -0.012731-0.0046082-0.018114-0.0064878-0.0087771-0.0030661-0.011934 0.0017973-0.011934 0.0017973-0.0047231-0.0025357-0.010397-0.0025616-0.015143-6.9303e-5 -0.0085143 0.00436-0.017569 0.01251-0.027662 0.007883-8.4153e-4 0.0018095-3.5641e-4 0.042796-0.0026655 0.076853-0.0023091 0.034057-0.0055 0.051509-0.0069782 0.058319-3.8688e-4 0.0017813 0.011102 0.003539 0.0080323 0.045987-0.0026236 0.036181-0.005692 0.52923-0.005692 0.52923z" fill="#3361e1"/>
            </g>
            <g clip-path="url(#a)">
                <path d="m8.2655 0.69486 4.5694e-6 -7.6766e-4c3.1224e-5 -0.0049312 0.0030988-0.49349 0.0056866-0.52928 0.0024949-0.034493-0.0046753-0.041806-0.0070308-0.044208-6.3819e-4 -6.5038e-4 -0.0011424-0.0011644-9.8547e-4 -0.0018856 0.0016366-0.0075395 0.0047217-0.025132 0.0069623-0.058209 0.0013708-0.020199 0.0017623-0.043125 0.0020212-0.058294 2.2847e-4 -0.013563 3.3814e-4 -0.018015 7.1664e-4 -0.018829l3.191e-4 -6.8541e-4 6.8541e-4 3.1605e-4c0.0018449 8.638e-4 0.0038574 0.0013105 0.0058945 0.0013084 0.0054505-3.8e-17 0.010679-0.0031148 0.015734-0.0061268 0.0017676-0.0010525 0.0035954-0.0021423 0.0053691-0.0030463 0.0024237-0.0012637 0.0051153-0.0019273 0.0078487-0.0019351 0.0025818-1.8567e-6 0.0051301 5.8385e-4 0.0074519 0.0017128 8.4686e-4 -9.0779e-4 0.0029389-0.0026046 0.0067475-0.0026046 0.0019213 3.5836e-5 0.003823 3.9286e-4 0.0056265 0.0010563 0.0017704 6.8063e-4 0.003467 0.0015395 0.0050637 0.0025634 0.0033509 0.0019892 0.0068183 0.004047 0.012778 0.003884 0.0033686-1.7005e-4 0.0067179-6.1193e-4 0.010015-0.0013213 9.0445e-4 -2.1055e-4 0.0018226-3.5688e-4 0.0027477-4.379e-4 3.1846e-4 -2.135e-5 6.2852e-4 1.0775e-4 8.3772e-4 3.488e-4l2.2847e-4 2.9473e-4 -8.4534e-5 4.1505e-4c-0.014636 0.056364-0.020271 0.10239-0.016739 0.13679l5.4833e-5 5.331e-4 -4.8436e-4 2.2847e-4c-0.016862 0.0080543-0.020629 0.036692-0.020657 0.047048-3.2747e-5 0.011816 0.0071641 0.52507 0.0072349 0.53025l1.0662e-5 7.7071e-4zm-8.1183e-4 -0.57593c1.7409e-4 2.1422e-4 3.6101e-4 4.1768e-4 5.5975e-4 6.0925e-4 0.0024751 0.0025238 0.010007 0.010205 0.0074634 0.045384-0.0025368 0.035079-0.0055381 0.50627-0.0056775 0.52841l0.060983-9.8242e-5c-3.1986e-4 -0.022793-0.0072593-0.51789-0.0072265-0.5295 2.894e-5 -0.010523 0.003884-0.039485 0.021041-0.04818-0.0034172-0.034333 0.0021651-0.080041 0.016594-0.13587-4.6379e-4 7.6157e-5 -0.0010662 1.9268e-4 -0.0017219 3.1986e-4 -0.003379 7.2679e-4 -0.0068116 0.0011779-0.010264 0.0013487-0.0063972 1.7745e-4 -0.010231-0.0020966-0.013598-0.0040965-0.0015103-9.7068e-4 -0.0031144-0.0017871-0.004788-0.002437-0.0016421-6.0726e-4 -0.0033742-9.3571e-4 -0.0051246-9.7176e-4 -0.0042214 0-0.0058549 0.0023685-0.0059227 0.0024698l-4.0592e-4 6.0925e-4 -6.2829e-4 -3.8078e-4c-0.0022264-0.0011952-0.0047156-0.0018163-0.0072425-0.0018072-0.002492 8.4489e-6 -0.0049457 6.1461e-4 -0.0071549 0.0017676-0.0017295 8.8494e-4 -0.003456 0.0019138-0.0052838 0.0030029-0.005232 0.0031171-0.010643 0.0063401-0.016512 0.0063408-0.0019268-1.1304e-6 -0.0038364-3.6275e-4 -0.0056303-0.0010662-2.0867e-4 0.0023525-3.2976e-4 0.0094351-4.6608e-4 0.01746-2.5969e-4 0.015186-6.5114e-4 0.038134-0.002025 0.058371-0.0022398 0.033012-0.0053173 0.050676-0.0069691 0.05832z" fill="#51a8db"/>
            </g>
            <g clip-path="url(#a)">
                <path d="m8.3545 0.061414c0.0027257-4.7217e-5 0.001364-0.001846 0.0029358-0.0018597 4.5694e-4 0 8.9789e-4 0.0011934 0.0018514 0.002421 0.0034781 0.004478 0.009726 0.0018278 0.013247 0.0036075 0.0035215 0.0017798 0.0028833 3.3128e-4 0.0035679-0.0027828 6.8465e-4 -0.0031141 0.0017562-0.0034575 0.0017189-0.0073826-4.2648e-5 -0.0044856-0.0011637-0.0046204-0.0012261-0.0080559-6.2449e-5 -0.0034354-0.0018422-0.0033509-0.0039906-0.0020083-0.0038688 0.0024195-0.0092302-6.2982e-4 -0.013085 0.0040264-0.0017196 0.0020783-8.3087e-4 0.0025132-0.0022847 0.0026297-5.0492e-4 4.1125e-5 -7.9279e-4 -0.0017417-0.0023479-0.001693-0.0036197 1.1576e-4 -0.0035421 0.011152-3.8764e-4 0.011098z" fill="#3361e1"/>
            </g>
            <g clip-path="url(#a)">
                <path d="m8.3444 0.057786 0.0085311-4.676e-4 3.7317e-5 -0.0028681-0.0083795 4.0135e-4 -1.8887e-4 0.0029343z" fill="#3361e1"/>
            </g>
            <g clip-path="url(#a)">
                <path d="m8.3523 0.098518c0.0027257-4.7217e-5 0.001364-0.001846 0.0029358-0.0018597 4.5694e-4 0 8.9789e-4 0.0011934 0.0018506 0.0024203 0.0034788 0.0044788 0.009726 0.0018278 0.013251 0.0036083 0.0035253 0.0017805 0.0028825 3.3128e-4 0.0035672-0.0027828 6.8465e-4 -0.0031141 0.0017569-0.0034575 0.0017196-0.0073826-4.2648e-5 -0.0044856-0.0011644-0.0046204-0.0012261-0.0080559-6.1687e-5 -0.0034354-0.001843-0.0033509-0.0039906-0.0020083-0.0038688 0.0024195-0.0092302-6.2982e-4 -0.013085 0.0040264-0.0017196 0.0020783-8.3087e-4 0.0025132-0.0022847 0.0026297-5.0492e-4 4.1125e-5 -7.9279e-4 -0.0017417-0.0023479-0.001693-0.0036213 1.1271e-4 -0.0035428 0.011152-3.9068e-4 0.011098z" fill="#3361e1"/>
            </g>
            <g clip-path="url(#a)">
                <path d="m8.3423 0.09489 0.0085311-4.676e-4 3.7317e-5 -0.0028681-0.0083795 4.0135e-4 -1.8887e-4 0.0029343z" fill="#3361e1"/>
            </g>
            <g clip-path="url(#a)">
                <path d="m8.3604 0.022063c0.0027257-4.7217e-5 0.001364-0.001846 0.0029358-0.0018597 4.5694e-4 -4.5694e-6 8.9789e-4 0.0011934 0.0018506 0.0024203 0.0034788 0.004478 0.009726 0.0018278 0.013251 0.0036083 0.0035253 0.0017805 0.0028825 3.3128e-4 0.0035672-0.0027828 6.8465e-4 -0.0031141 0.0017569-0.0034575 0.0017196-0.0073826-4.2648e-5 -0.0044864-0.0011644-0.0046204-0.0012261-0.0080559-6.1687e-5 -0.0034354-0.001843-0.0033509-0.0039906-0.0020083-0.0038688 0.0024195-0.009231-6.3058e-4 -0.013085 0.0040264-0.0017196 0.0020776-8.3087e-4 0.0025132-0.0022847 0.0026297-5.0492e-4 4.1125e-5 -7.9279e-4 -0.0017425-0.0023479-0.0016937-0.0036213 1.1347e-4 -0.0035428 0.011153-3.9068e-4 0.011098z" fill="#3361e1"/>
            </g>
            <g clip-path="url(#a)">
                <path d="m8.3503 0.018435 0.0085311-4.676e-4 3.7317e-5 -0.0028681-0.0083795 4.0058e-4 -1.8887e-4 0.0029351z" fill="#3361e1"/>
            </g>
            <g clip-path="url(#a)">
                <path d="m8.26 0.051102c-0.0027257 4.7217e-5 -0.0013647 0.001846-0.0029366 0.0018597-4.5694e-4 0-8.9789e-4 -0.0011934-0.0018506-0.002421-0.0034788-0.004478-0.009726-0.0018278-0.013251-0.0036075-0.0035253-0.0017798-0.0028825-3.3128e-4 -0.0035672 0.0027828-6.8465e-4 0.0031141-0.0017569 0.0034575-0.0017196 0.0073826 4.2648e-5 0.0044856 0.0011644 0.0046204 0.0012261 0.0080551 6.1687e-5 0.0034347 0.001843 0.0033509 0.0039906 0.002009 0.0038688-0.0024195 0.009231 6.2982e-4 0.013085-0.0040264 0.0017196-0.0020783 8.3163e-4 -0.0025132 0.0022885-0.0026297 5.0492e-4 -4.1125e-5 7.9279e-4 0.0017417 0.0023479 0.001693 0.0036174-1.15e-4 0.003539-0.011152 3.8764e-4 -0.011098z" fill="#3361e1"/>
            </g>
            <g clip-path="url(#a)">
                <path d="m8.2701 0.05473-0.0085311 4.676e-4 -3.7317e-5 0.0028681 0.0083795-4.0135e-4 1.8887e-4 -0.0029343z" fill="#3361e1"/>
            </g>
            <g clip-path="url(#a)">
                <path d="m8.2613 0.013045c-0.0027257 4.7217e-5 -0.0013647 0.001846-0.0029366 0.0018597-4.5694e-4 4.5694e-6 -8.9789e-4 -0.0011934-0.0018506-0.0024203-0.0034788-0.0044788-0.009726-0.0018278-0.013251-0.0036083-0.0035253-0.0017805-0.0028825-3.3128e-4 -0.0035672 0.0027828-6.8465e-4 0.0031141-0.0017569 0.0034575-0.0017196 0.0073826 4.2648e-5 0.0044856 0.0011644 0.0046204 0.0012261 0.0080559 6.1687e-5 0.0034354 0.001843 0.0033509 0.0039906 0.0020083 0.0038688-0.0024195 0.009231 6.3058e-4 0.013085-0.0040264 0.0017196-0.0020783 8.3163e-4 -0.0025132 0.0022885-0.0026297 5.0492e-4 -4.1125e-5 7.9279e-4 0.0017425 0.0023487 0.0016937 0.0036167-1.1347e-4 0.0035382-0.011153 3.8688e-4 -0.011098z" fill="#3361e1"/>
            </g>
            <g clip-path="url(#a)">
                <path d="m8.2713 0.016673-0.0085311 4.676e-4 -3.7317e-5 0.0028681 0.0083795-4.0058e-4 1.8887e-4 -0.0029351z" fill="#3361e1"/>
            </g>
            <g clip-path="url(#a)">
                <path d="m8.2573 0.089231c-0.0027249 4.7217e-5 -0.001364 0.001846-0.0029358 0.0018597-4.5694e-4 4.5694e-6 -8.9789e-4 -0.0011934-0.0018506-0.0024203-0.0034788-0.004478-0.009726-0.0018278-0.013251-0.0036083-0.0035253-0.0017805-0.0028825-3.3128e-4 -0.0035672 0.0027828-6.8465e-4 0.0031141-0.0017569 0.0034575-0.0017196 0.0073826 4.2648e-5 0.0044864 0.0011644 0.0046204 0.0012261 0.0080559 6.1687e-5 0.0034354 0.001843 0.0033509 0.0039906 0.002009 0.0038688-0.0024203 0.009231 6.2982e-4 0.013085-0.0040272 0.0017196-0.0020776 8.3163e-4 -0.0025132 0.0022885-0.0026297 5.0492e-4 -4.1125e-5 7.9279e-4 0.0017425 0.0023479 0.0016937 0.0036174-1.1271e-4 0.003539-0.011153 3.8688e-4 -0.011098z" fill="#3361e1"/>
            </g>
            <g clip-path="url(#a)">
                <path d="m8.2674 0.09286-0.0085311 4.6836e-4 -3.7317e-5 0.0028673 0.0083795-4.0058e-4 1.8887e-4 -0.0029351z" fill="#3361e1"/>
            </g>
            <g clip-path="url(#a)">
                <path d="m8.272 0.16216h0.048472c1.7996e-4 0 3.5256e-4 7.1491e-5 4.7981e-4 1.9874e-4 1.2725e-4 1.2725e-4 1.9874e-4 2.9985e-4 1.9874e-4 4.7981e-4v0.004408c0 1.7996e-4 -7.1491e-5 3.5256e-4 -1.9874e-4 4.7981e-4 -1.2725e-4 1.2725e-4 -2.9985e-4 1.9874e-4 -4.7981e-4 1.9874e-4h-0.048472c-3.7518e-4 0-6.7932e-4 -3.0414e-4 -6.7932e-4 -6.7932e-4v-0.0044072c0-1.7996e-4 7.1491e-5 -3.5256e-4 1.9874e-4 -4.7981e-4 1.2725e-4 -1.2725e-4 2.9985e-4 -1.9874e-4 4.7981e-4 -1.9874e-4z" fill="#51a8db"/>
            </g>
            <g clip-path="url(#a)">
                <path d="m8.2723 0.21064 0.0015993-8.8342e-5 0.0031407-1.6298e-4 0.0030866-1.4698e-4 0.0030463-1.3099e-4 0.0030128-1.1576e-4 0.0029884-1.0129e-4 0.0044628-1.2414e-4 0.0044605-9.2911e-5 0.0029876-4.4933e-5 0.0030135-3.1224e-5 0.0030463-1.9039e-5 0.0030904-6.0925e-6 0.0031422 5.331e-6 0.0032039 1.6754e-5 0.0032747 2.894e-5 0.0016648 1.8278e-5c8.4153e-4 9.9004e-6 0.0015346-4.6075e-4 0.0015475-0.0010502 1.2947e-5 -5.8945e-4 -6.5723e-4 -0.0010761-0.001498-0.0010852l-0.0016754-1.8278e-5 -0.0032892-2.894e-5 -0.0032199-1.7516e-5 -0.003159-5.331e-6 -0.0031072 6.8541e-6 -0.0030661 1.9039e-5 -0.0030333 3.1986e-5 -0.0030128 4.4933e-5 -0.0044933 9.2911e-5 -0.0044887 1.2566e-4 -0.003009 1.0129e-4 -0.0030318 1.1728e-4 -0.0030645 1.3175e-4 -0.0031057 1.4774e-4 -0.0031544 1.6374e-4 -0.0015993 8.8342e-5c-8.3772e-4 4.6456e-5 -0.0014653 5.6051e-4 -0.001399 0.0011484 6.6256e-5 5.8793e-4 7.9888e-4 0.0010274 0.0016374 9.809e-4z" fill="#51a8db"/>
            </g>
            <g clip-path="url(#a)">
                <path d="m8.272 0.2482 0.001613-2.894e-5 0.0031689-5.331e-5 0.0031057-4.7979e-5 0.0030531-4.3409e-5 0.0045092-6.1687e-5 0.0059402-8.2249e-5 0.0059357-9.2911e-5 0.0045062-8.4534e-5 0.0030524-6.6256e-5 0.0031011-7.6157e-5 0.0031643-8.6057e-5 0.0032367-9.9765e-5 0.0033212-1.1347e-4 0.0016975-6.2449e-5c8.3772e-4 -3.0463e-5 0.0014858-5.331e-4 0.0014416-0.0011226-4.4171e-5 -5.8945e-4 -7.6157e-4 -0.0010411-0.0015993-0.0010106l-0.0016861 6.2449e-5 -0.0033067 1.1271e-4 -0.0032222 9.9004e-5 -0.0031506 8.6819e-5 -0.0030897 7.6157e-5 -0.0030394 6.5495e-5 -0.0044933 8.4534e-5 -0.0059265 9.2911e-5 -0.0059364 8.2249e-5 -0.0045115 6.1687e-5 -0.0030577 4.4171e-5 -0.003111 4.7217e-5 -0.003175 5.331e-5 -0.0016138 2.9701e-5c-8.3772e-4 1.5231e-5 -0.0015049 5.0568e-4 -0.0014835 0.0010951 2.1324e-5 5.8945e-4 7.212e-4 0.0010548 0.001562 0.0010395z" fill="#51a8db"/>
            </g>
            <g clip-path="url(#a)">
                <path d="m8.272 0.28417 8.6514e-4 -3.1986e-5 0.0017074-6.1687e-5 0.0025132-8.5296e-5 0.0032747-1.0129e-4 0.0031925-8.8342e-5 0.0031293-7.6157e-5 0.0030798-6.6256e-5 0.0045587-8.5296e-5 0.0060354-9.1388e-5 0.0045557-5.7879e-5 0.0030783-3.7317e-5 0.0031285-3.6555e-5 0.003191-3.8078e-5 0.0032679-4.1125e-5 0.0033593-4.5694e-5 0.0017181-2.437e-5c8.3772e-4 -1.2185e-5 0.0015087-4.9959e-4 0.0014919-0.001089-1.6754e-5 -5.8945e-4 -7.1283e-4 -0.0010586-0.0015536-0.0010464l-0.0017151 2.437e-5 -0.0033509 4.5694e-5 -0.0032656 4.0363e-5 -0.0031902 3.884e-5 -0.0031285 3.6555e-5 -0.0030821 3.6555e-5 -0.0045694 5.8641e-5 -0.0060507 9.215e-5 -0.0045694 8.4534e-5 -0.0030912 6.778e-5 -0.0031422 7.6157e-5 -0.003207 8.9103e-5 -0.0032846 1.0129e-4 -0.0025223 8.5296e-5 -0.0017128 6.1687e-5 -8.659e-4 3.2747e-5c-8.3772e-4 3.1224e-5 -0.0014851 5.331e-4 -0.0014401 0.0011233 4.4933e-5 5.9022e-4 7.6157e-4 0.0010403 0.0015993 0.0010091z" fill="#51a8db"/>
            </g>
            <g clip-path="url(#a)">
                <path d="m8.2717 0.31822 0.0017569-2.8178e-5 0.0034446-5.5594e-5 0.00336-5.331e-5 0.0032877-5.331e-5 0.003226-5.331e-5 0.0031757-5.331e-5 0.0046935-8.1488e-5 0.0061885-1.1652e-4 0.00619-1.2871e-4 0.0046996-1.0738e-4 0.0031803-7.6157e-5 0.0032313-8.3772e-5 0.003293-8.9865e-5 0.0016754-4.7979e-5c8.3772e-4 -2.3609e-5 0.0014942-5.2091e-4 0.0014607-0.0011104-3.3509e-5 -5.8945e-4 -7.4253e-4 -0.0010479-0.0015833-0.0010235l-0.0016701 4.7217e-5 -0.0032869 8.9865e-5 -0.0032252 8.3772e-5 -0.0031735 7.6157e-5 -0.0046905 1.0738e-4 -0.0061816 1.2871e-4 -0.0061816 1.1576e-4 -0.0046913 8.2249e-5 -0.0031742 5.331e-5 -0.0032252 5.2548e-5 -0.0032862 5.331e-5 -0.0033608 5.331e-5 -0.0034446 5.5594e-5 -0.0017585 2.8178e-5c-8.3772e-4 1.3708e-5 -0.0015064 5.034e-4 -0.0014873 0.0010929 1.9039e-5 5.8945e-4 7.174e-4 0.0010563 0.0015582 0.0010426z" fill="#51a8db"/>
            </g>
            <g clip-path="url(#a)">
                <path d="m8.2709 0.34948 9.0398e-4 -9.9004e-6 0.0017775-1.8278e-5 0.0017425-1.5993e-5 0.0017097-1.3708e-5 0.0025132-1.5993e-5 0.0032595-1.5993e-5 0.003178-9.1388e-6 0.0031171-5.331e-6h0.0046098 0.0045907 0.0030859 0.0031308l0.0031986-5.331e-6 0.0032824-9.9004e-6 0.0025315-1.1424e-5 0.0017257-9.9004e-6 0.0017585-1.1424e-5 0.0017943-1.447e-5 0.0018331-1.5993e-5 0.0018735-1.8278e-5 9.5424e-4 -1.0662e-5c8.3772e-4 -9.1388e-6 0.0015125-4.9426e-4 0.0014995-0.0010837-1.2947e-5 -5.8945e-4 -7.0521e-4 -0.0010609-0.001546-0.0010517l-9.5044e-4 9.9004e-6 -0.0018689 1.9039e-5 -0.0018278 1.5993e-5 -0.0017897 1.3708e-5 -0.0017516 1.2185e-5 -0.0017204 9.1388e-6 -0.0025246 1.1424e-5 -0.0032747 9.9004e-6 -0.0031917 5.331e-6h-0.0031278-0.0030844-0.0045938-0.0046151l-0.0031224 4.5694e-6 -0.0031856 9.9004e-6 -0.0032679 1.5231e-5 -0.002517 1.6754e-5 -0.0017151 1.3708e-5 -0.0017516 1.5231e-5 -0.0017821 1.8278e-5 -9.0398e-4 1.0662e-5c-8.4153e-4 9.1388e-6 -0.0015117 4.9502e-4 -0.0014988 0.0010845 1.2947e-5 5.8945e-4 7.0674e-4 0.0010601 0.0015475 0.001051z" fill="#51a8db"/>
            </g>
            <g clip-path="url(#a)">
                <path d="m8.2705 0.3796 0.0031453-9.1388e-6h0.0062449l0.0062449 1.447e-5 0.0047271 1.6754e-5 0.0031864 1.3708e-5 0.0032252 1.3708e-5 0.0032747 1.3708e-5 0.0033258 1.2185e-5 0.0033882 9.9004e-6 0.003459 7.6157e-6 0.0035375 4.5694e-6h0.0036258l0.0037203-6.0925e-6 0.0018994-4.5694e-6c8.4153e-4 0 0.0015231-4.8207e-4 0.0015178-0.0010715-5.331e-6 -5.8945e-4 -6.8541e-4 -0.0010662-0.0015285-0.0010662l-0.001894 4.5694e-6 -0.0037149 5.331e-6h-0.0036197l-0.0035337-3.8078e-6 -0.0034552-7.6157e-6 -0.0033852-1.0662e-5 -0.0033235-1.2185e-5 -0.0032709-1.2947e-5 -0.0032252-1.447e-5 -0.0031894-1.2947e-5 -0.0047324-1.7516e-5 -0.0062578-1.3708e-5h-0.006257l-0.0031476 9.1388e-6c-8.3772e-4 0-0.0015231 4.8283e-4 -0.0015163 0.001073 6.8541e-6 5.9022e-4 6.8541e-4 0.0010662 0.00153 0.0010662z" fill="#51a8db"/>
            </g>
            <g clip-path="url(#a)">
                <path d="m8.2705 0.40724 0.0031719-1.7516e-5 0.0062921-4.5694e-6 0.0062936 2.8178e-5 0.0047628 3.4271e-5 0.0032123 2.6655e-5 0.0032511 2.6655e-5 0.0032991 2.6655e-5 0.0033509 2.437e-5 0.0034179 2.0562e-5 0.0034895 1.5231e-5 0.0035695 7.6157e-6h0.0036555l0.0028064-6.8541e-6 0.0019039-8.3772e-6 9.6186e-4 -5.331e-6c8.4153e-4 0 0.0015178-4.8588e-4 0.0015117-0.0010753-6.0925e-6 -5.8945e-4 -6.9303e-4 -0.0010662-0.0015346-0.0010601l-9.5729e-4 5.331e-6 -0.0018955 7.6157e-6 -0.0027972 6.8541e-6h-0.0036471l-0.0035603-8.3772e-6 -0.0034819-1.447e-5 -0.0034118-2.0562e-5 -0.0033509-2.437e-5 -0.0032968-2.6655e-5 -0.0032527-2.7416e-5 -0.0032161-2.5893e-5 -0.004775-3.4271e-5 -0.0063149-2.8178e-5h-0.0063149l-0.0031719 1.8278e-5c-8.3772e-4 4.5694e-6 -0.0015178 4.8664e-4 -0.001511 0.0010761 6.8541e-6 5.8945e-4 6.9455e-4 0.0010662 0.0015353 0.0010593z" fill="#51a8db"/>
            </g>
            <g clip-path="url(#a)">
                <path d="m8.2703 0.43504 0.00321-1.5231e-5h0.0063705l0.006372 2.3609e-5 0.0048222 2.9701e-5 0.0032511 2.2847e-5 0.0032915 2.3609e-5 0.0033387 2.3609e-5 0.0033943 2.0562e-5 0.003459 1.8278e-5 0.0035306 1.2947e-5 0.0036129 6.8541e-6h0.0037012l0.0028406-6.0925e-6 0.001926-7.6157e-6h9.7405e-4c8.3772e-4 0 0.0015186-4.8512e-4 0.0015132-0.0010753-5.331e-6 -5.9022e-4 -6.9227e-4 -0.0010662-0.001533-0.0010609l-9.6948e-4 4.5694e-6 -0.0019192 6.8541e-6 -0.0028323 6.0925e-6h-0.0036928l-0.0036037-7.6157e-6 -0.0035253-1.2947e-5 -0.0034545-1.7516e-5 -0.0033913-2.1324e-5 -0.003338-2.2847e-5 -0.0032915-2.3609e-5 -0.0032557-2.2847e-5 -0.0048321-2.9701e-5 -0.0063903-2.437e-5h-0.0063896l-0.0032115 1.5231e-5c-8.3772e-4 0-0.0015178 4.8588e-4 -0.0015117 0.0010753 6.0925e-6 5.8945e-4 6.9227e-4 0.0010662 0.0015338 0.0010601z" fill="#51a8db"/>
            </g>
            <g clip-path="url(#a)">
                <path d="m8.2698 0.46007 0.0032367-9.9004e-6h0.0064261l0.0064276 1.5231e-5 0.0048626 1.9039e-5 0.0032747 1.447e-5 0.0033189 1.5231e-5 0.0033654 1.447e-5 0.0034217 1.2947e-5 0.0034865 1.1424e-5 0.0035588 8.3772e-6 0.0036403 4.5694e-6h0.0037317l0.0038284-6.0925e-6 0.0019542-5.331e-6c8.3772e-4 0 0.0015231-4.8207e-4 0.0015178-0.0010715-5.331e-6 -5.8945e-4 -6.8541e-4 -0.0010662-0.0015292-0.0010662l-0.0019489 4.5694e-6 -0.0038223 6.0925e-6h-0.0037241l-0.0036357-4.5694e-6 -0.003555-8.3772e-6 -0.0034834-1.1424e-5 -0.0034194-1.3708e-5 -0.0033654-1.447e-5 -0.0033182-1.5231e-5 -0.0032816-1.447e-5 -0.0048695-1.9039e-5 -0.0064391-1.5231e-5h-0.0064383l-0.0032374 9.9004e-6c-8.3772e-4 0-0.0015231 4.8283e-4 -0.0015163 0.001073 6.8541e-6 5.9022e-4 6.8541e-4 0.0010662 0.00153 0.0010662z" fill="#51a8db"/>
            </g>
            <g clip-path="url(#a)">
                <path d="m8.2695 0.48366 0.001648-1.447e-5 0.0032747-1.5993e-5h0.0048916l0.0065312 3.7317e-5 0.0049418 4.5694e-5 0.0033334 3.5794e-5 0.0033745 3.5794e-5 0.0034232 3.5794e-5 0.0034819 3.2747e-5 0.0035474 2.6655e-5 0.0036228 2.0562e-5 0.003705 1.0662e-5h0.0037979l0.0029145-9.1388e-6 0.0019801-1.0662e-5 9.9918e-4 -6.8541e-6c8.4153e-4 -6.0925e-6 0.001517-4.8893e-4 0.0015087-0.0010784-8.3772e-6 -5.8945e-4 -6.9683e-4 -0.0010662-0.0015376-0.0010578l-9.9004e-4 6.8541e-6 -0.0019664 1.1424e-5 -0.0029016 9.1388e-6h-0.0037842l-0.0036944-1.1424e-5 -0.0036129-1.9801e-5 -0.0035405-2.7416e-5 -0.0034773-3.1986e-5 -0.0034217-3.5794e-5 -0.0033753-3.6555e-5 -0.0033387-3.5032e-5 -0.004957-4.5694e-5 -0.0065556-3.7317e-5h-0.0049136l-0.00329 1.5993e-5 -0.0016496 1.3708e-5c-8.4153e-4 7.6157e-6 -0.0015148 4.9121e-4 -0.0015049 0.0010814 9.9004e-6 5.9022e-4 7.0064e-4 0.0010616 0.0015422 0.0010548z" fill="#51a8db"/>
            </g>
            <g clip-path="url(#a)">
                <path d="m8.2689 0.50638 0.0016754-1.6754e-5 0.0033357-1.9039e-5h0.0049829l0.0066531 4.3409e-5 0.0050347 5.4071e-5 0.0033958 4.1125e-5 0.0034392 4.2648e-5 0.003488 4.1125e-5 0.0035474 3.8078e-5 0.0036159 3.1986e-5 0.0036913 2.3609e-5 0.0037766 1.2947e-5h0.002894l0.001961-4.5694e-6 0.0019862-7.6157e-6 0.0020143-1.2947e-5 0.0010182-8.3772e-6c8.3772e-4 -6.0925e-6 0.0015155-4.8969e-4 0.0015064-0.0010791-9.1388e-6 -5.8945e-4 -6.9912e-4 -0.0010662-0.0015407-0.0010563l-0.0010114 8.3772e-6 -0.0020037 1.2185e-5 -0.0019801 8.3772e-6h-0.0019504-0.0028818l-0.0037637-1.2185e-5 -0.0036807-2.3609e-5 -0.0036068-3.1986e-5 -0.0035428-3.8078e-5 -0.0034872-4.1125e-5 -0.0034392-4.2648e-5 -0.0034019-4.1125e-5 -0.0050522-5.4071e-5 -0.0066812-4.4171e-5h-0.0050081l-0.0033509 1.9039e-5 -0.0016808 1.5993e-5c-8.3772e-4 8.3772e-6 -0.0015132 4.935e-4 -0.0015011 0.0010829s7.0293e-4 0.0010616 0.0015445 0.0010532z" fill="#51a8db"/>
            </g>
            <g clip-path="url(#a)">
                <path d="m8.2692 0.52738 0.0016793-1.5993e-5 0.0033364-1.9039e-5h0.0049829l0.0066531 4.4171e-5 0.0050347 5.331e-5 0.0033958 4.1125e-5 0.0034385 4.2648e-5 0.0034887 4.1886e-5 0.0035474 3.7317e-5 0.0036152 3.2747e-5 0.0036921 2.3609e-5 0.0037766 1.2185e-5h0.002894 0.0019618l0.0019862-8.3772e-6 0.0020136-1.2947e-5 0.0010182-7.6157e-6c8.4153e-4 -6.8541e-6 0.0015155-4.9045e-4 0.0015064-0.0010799-9.1388e-6 -5.8945e-4 -6.9912e-4 -0.0010624-0.0015399-0.0010563l-0.0010114 8.3772e-6 -0.0020044 1.2185e-5 -0.0019801 8.3772e-6 -0.0019511 4.5694e-6h-0.002881l-0.0037637-1.2947e-5 -0.0036807-2.3609e-5 -0.0036075-3.1986e-5 -0.0035428-3.8078e-5 -0.0034865-4.1125e-5 -0.0034392-4.2648e-5 -0.0034027-4.1125e-5 -0.0050522-5.4071e-5 -0.0066805-4.3409e-5h-0.0050088l-0.0033509 1.9039e-5 -0.0016808 1.6754e-5c-8.4153e-4 8.3772e-6 -0.001514 4.9273e-4 -0.0015018 0.0010829s7.0369e-4 0.0010609 0.0015445 0.0010525z" fill="#51a8db"/>
            </g>
            <g clip-path="url(#a)">
                <path d="m8.2688 0.54747 0.0016968-1.7516e-5 0.0033699-1.9801e-5h0.005034l0.0067216 4.6456e-5 0.0050858 5.7118e-5 0.0034271 4.3409e-5 0.0034735 4.5694e-5 0.0035245 4.4171e-5 0.0035847 4.0363e-5 0.0036555 3.4271e-5 0.0037317 2.437e-5 0.0038162 1.3708e-5h0.0029244 0.0019801l0.0020075-9.1388e-6 0.0020341-1.3708e-5 0.0010296-8.3772e-6c8.3772e-4 -6.8541e-6 0.0015148-4.9045e-4 0.0015049-0.0010807-9.9004e-6 -5.9022e-4 -6.9988e-4 -0.0010662-0.0015414-0.0010548l-0.0010213 8.3772e-6 -0.002025 1.3708e-5 -0.0019976 8.3772e-6 -0.0019702 4.5694e-6h-0.0029107l-0.0038017-1.3708e-5 -0.0037187-2.5132e-5 -0.0036449-3.3509e-5 -0.0035794-4.1125e-5 -0.0035223-4.4171e-5 -0.003475-4.4933e-5 -0.0034377-4.4171e-5 -0.0051025-5.7118e-5 -0.0067505-4.6456e-5h-0.0050606l-0.0033882 2.0562e-5 -0.0016983 1.7516e-5c-8.4153e-4 8.3772e-6 -0.0015132 4.9426e-4 -0.0015003 0.0010837 1.2947e-5 5.8945e-4 7.0445e-4 0.0010609 0.0015452 0.0010517z" fill="#51a8db"/>
            </g>
            <g clip-path="url(#a)">
                <path d="m8.2689 0.56706 0.0016968-1.7516e-5 0.0033699-2.0562e-5h0.005034l0.0067208 4.6456e-5 0.0050865 5.7118e-5 0.0034271 4.3409e-5 0.0034735 4.5694e-5 0.0035245 4.4171e-5 0.0035847 4.0363e-5 0.0036555 3.4271e-5 0.0037317 2.5132e-5 0.0038162 1.3708e-5h0.0029244l0.0019801-4.5694e-6 0.0020075-9.1388e-6 0.0020341-1.2947e-5 0.0010296-9.1388e-6c8.3772e-4 -6.8541e-6 0.0015148-4.9045e-4 0.0015049-0.0010799-9.9004e-6 -5.8945e-4 -6.9988e-4 -0.0010662-0.0015414-0.0010555l-0.0010213 8.3772e-6 -0.002025 1.3708e-5 -0.0019976 9.1388e-6h-0.0019702-0.0029115l-0.0038017-1.2947e-5 -0.0037187-2.5132e-5 -0.0036441-3.4271e-5 -0.0035794-4.0363e-5 -0.003523-4.4171e-5 -0.003475-4.5694e-5 -0.0034377-4.3409e-5 -0.0051025-5.7118e-5 -0.0067505-4.7217e-5h-0.0050606l-0.003389 2.0562e-5 -0.0016975 1.6754e-5c-8.4153e-4 9.1388e-6 -0.0015132 4.9426e-4 -0.0015003 0.0010837 1.2947e-5 5.8945e-4 7.0445e-4 0.0010609 0.0015452 0.0010525z" fill="#51a8db"/>
            </g>
            <g clip-path="url(#a)">
                <path d="m8.2685 0.58448 0.001725-2.6655e-5 0.003421-3.0463e-5 0.0034057-4.5694e-6 0.0034027 1.7516e-5 0.0034111 3.5794e-5 0.0034271 5.0263e-5 0.0034529 6.0925e-5 0.003488 6.7018e-5 0.0035306 6.9303e-5 0.0035794 6.778e-5 0.0036449 6.1687e-5 0.0037149 5.1787e-5 0.0037949 3.884e-5 0.0029039 1.7516e-5 0.0019664 4.5694e-6h0.0019923l0.0020151-6.8541e-6 0.0020425-1.3708e-5 0.0020707-2.0562e-5 0.0010479-1.2947e-5c8.4153e-4 -1.0662e-5 0.001511-4.973e-4 0.0014957-0.0010868-1.5231e-5 -5.8945e-4 -7.0902e-4 -0.0010593-0.0015498-0.0010487l-0.0010365 1.2947e-5 -0.0020562 2.0562e-5 -0.0020288 1.2947e-5 -0.0020022 6.8541e-6h-0.0019801l-0.0019519-5.331e-6 -0.0028863-1.6754e-5 -0.0037774-3.884e-5 -0.0037027-5.1787e-5 -0.0036357-6.1687e-5 -0.0035794-6.778e-5 -0.0035329-6.9303e-5 -0.0034941-6.7018e-5 -0.0034651-6.0925e-5 -0.0034453-5.0263e-5 -0.0034339-3.6555e-5 -0.0034316-1.7516e-5 -0.0034392 4.5694e-6 -0.0034484 3.1224e-5 -0.0017265 2.6655e-5c-8.3772e-4 1.2947e-5 -0.0015071 5.0187e-4 -0.0014889 0.0010913 1.8278e-5 5.8945e-4 7.1587e-4 0.0010571 0.0015566 0.0010441z" fill="#51a8db"/>
            </g>
            <g clip-path="url(#a)">
                <path d="m8.2685 0.60122 0.001725-2.5893e-5 0.003421-3.1224e-5 0.0034057-4.5694e-6 0.0034027 1.8278e-5 0.0034111 3.5794e-5 0.0034271 5.0263e-5 0.0034529 6.0164e-5 0.003488 6.7018e-5 0.0035306 6.9303e-5 0.0035794 6.778e-5 0.0036449 6.1687e-5 0.0037149 5.2548e-5 0.0037949 3.8078e-5 0.0029039 1.7516e-5 0.0019664 5.331e-6h0.0019923l0.0020151-6.8541e-6 0.0020425-1.2947e-5 0.0020707-2.0562e-5 0.0010479-1.3708e-5c8.4153e-4 -1.0662e-5 0.001511-4.973e-4 0.0014957-0.0010868-1.5231e-5 -5.8945e-4 -7.0902e-4 -0.0010593-0.0015498-0.0010487l-0.0010365 1.2947e-5 -0.0020562 2.0562e-5 -0.0020288 1.3708e-5 -0.0020022 6.8541e-6h-0.0019801l-0.0019519-4.5694e-6 -0.0028863-1.7516e-5 -0.0037774-3.8078e-5 -0.003702-5.1787e-5 -0.0036365-6.2449e-5 -0.0035794-6.7018e-5 -0.0035329-6.9303e-5 -0.0034941-6.7018e-5 -0.0034651-6.0925e-5 -0.0034453-5.0263e-5 -0.0034339-3.6555e-5 -0.0034316-1.7516e-5 -0.0034392 4.5694e-6 -0.0034484 3.1224e-5 -0.0017265 2.6655e-5c-8.3772e-4 1.2947e-5 -0.0015071 5.0111e-4 -0.0014889 0.0010913 1.8278e-5 5.9022e-4 7.1587e-4 0.0010571 0.0015566 0.0010433z" fill="#51a8db"/>
            </g>
            <g clip-path="url(#a)">
                <path d="m8.2678 0.61765 0.0035101-1.0662e-5h0.0069714l0.0069714 1.5993e-5 0.0052746 1.9801e-5 0.0035565 1.5231e-5 0.0035992 1.5993e-5 0.0036502 1.5231e-5 0.0037111 1.3708e-5 0.0037812 1.2185e-5 0.0038596 8.3772e-6 0.003948 4.5694e-6h0.0040454 0.0031034l0.002105-4.5694e-6h0.0010662c8.4153e-4 0 0.0015231-4.8207e-4 0.001517-0.0010723-6.0925e-6 -5.9022e-4 -6.8541e-4 -0.0010662-0.0015285-0.0010662h-0.0010616l-0.0021004 4.5694e-6 -0.0030981 4.5694e-6h-0.0040363l-0.0039434-4.5694e-6 -0.0038566-9.1388e-6 -0.0037774-1.1424e-5 -0.0037096-1.447e-5 -0.0036494-1.5231e-5 -0.0035992-1.5231e-5 -0.0035588-1.5231e-5 -0.0052815-1.9801e-5 -0.0069828-1.5993e-5h-0.0069821l-0.0035116 9.9004e-6c-8.4153e-4 0-0.0015231 4.8283e-4 -0.0015163 0.001073 6.8541e-6 5.9022e-4 6.8541e-4 0.0010662 0.0015292 0.0010662z" fill="#51a8db"/>
            </g>
            <g clip-path="url(#a)">
                <path d="m8.2679 0.63265 0.0035101-9.9004e-6h0.0069706l0.0069714 1.5993e-5 0.0052754 1.9801e-5 0.0035558 1.5231e-5 0.0035992 1.5993e-5 0.003651 1.5231e-5 0.0037104 1.3708e-5 0.0037812 1.1424e-5 0.0038596 9.1388e-6 0.003948 4.5694e-6h0.0040454l0.0031042-4.5694e-6 0.0021042-4.5694e-6h0.0010662c8.4153e-4 0 0.0015231-4.8207e-4 0.0015178-0.0010715-5.331e-6 -5.8945e-4 -6.8541e-4 -0.0010662-0.0015292-0.0010662h-0.0010609l-0.0021004 4.5694e-6h-0.0030988-0.0040363l-0.0039434-4.5694e-6 -0.0038558-8.3772e-6 -0.0037781-1.2185e-5 -0.0037096-1.3708e-5 -0.0036494-1.5231e-5 -0.0035992-1.5993e-5 -0.0035588-1.447e-5 -0.0052815-2.0562e-5 -0.0069828-1.5993e-5h-0.0069821l-0.0035116 1.0662e-5c-8.3772e-4 0-0.0015231 4.8283e-4 -0.0015163 0.0010723 6.8541e-6 5.8945e-4 6.8541e-4 0.0010662 0.00153 0.0010662z" fill="#51a8db"/>
            </g>
            <g clip-path="url(#a)">
                <path d="m8.2679 0.64692 0.0035101-9.9004e-6h0.0069706l0.0069714 1.5993e-5 0.0052754 1.9801e-5 0.0035558 1.5231e-5 0.0035992 1.5231e-5 0.003651 1.5231e-5 0.0037104 1.447e-5 0.0037812 1.1424e-5 0.0038596 9.1388e-6 0.003948 4.5694e-6h0.0040454 0.0031042l0.0021042-4.5694e-6h0.0010662c8.4153e-4 0 0.0015231-4.8207e-4 0.0015178-0.0010723-5.331e-6 -5.9022e-4 -6.8541e-4 -0.0010662-0.0015292-0.0010662h-0.0010609l-0.0021004 5.331e-6h-0.0030988-0.0040363l-0.0039434-4.5694e-6 -0.0038558-8.3772e-6 -0.0037781-1.2185e-5 -0.0037096-1.3708e-5 -0.0036494-1.5231e-5 -0.0035992-1.5993e-5 -0.0035588-1.5231e-5 -0.0052815-1.9801e-5 -0.0069828-1.5993e-5h-0.0069821l-0.0035116 1.0662e-5c-8.3772e-4 0-0.0015231 4.8283e-4 -0.0015163 0.0010723 6.8541e-6 5.8945e-4 6.8541e-4 0.0010662 0.00153 0.0010662z" fill="#51a8db"/>
            </g>
            <g clip-path="url(#a)">
                <path d="m8.2674 0.66075 0.0017844-9.9004e-6 0.0035481-1.1424e-5h0.0053005l0.0070757 2.7416e-5 0.0053531 3.2747e-5 0.0036091 2.5132e-5 0.0036555 2.5893e-5 0.0037058 2.5132e-5 0.0037682 2.3609e-5 0.0038391 1.9801e-5 0.003919 1.447e-5 0.0040097 7.6157e-6h0.0030722 0.0020814l0.002108-5.331e-6 0.002137-7.6157e-6 0.0010807-4.5694e-6c8.3772e-4 0 0.0015186-4.8512e-4 0.0015132-0.0010746-5.331e-6 -5.8945e-4 -6.915e-4 -0.0010662-0.001533-0.0010616l-0.0010761 5.331e-6 -0.0021324 7.6157e-6 -0.0021035 5.331e-6h-0.0020745-0.0030645l-0.004002-7.6157e-6 -0.0039129-1.447e-5 -0.0038345-1.9039e-5 -0.0037652-2.3609e-5 -0.0037043-2.5132e-5 -0.0036555-2.6655e-5 -0.0036136-2.5132e-5 -0.005363-3.2747e-5 -0.0070917-2.6655e-5h-0.005315l-0.003558 1.1424e-5 -0.0017859 9.9004e-6c-8.3772e-4 5.331e-6 -0.0015178 4.874e-4 -0.001511 0.0010769 6.8541e-6 5.8945e-4 6.9455e-4 0.0010662 0.0015361 0.0010593z" fill="#51a8db"/>
            </g>
            <g clip-path="url(#a)">
                <path d="m8.2674 0.67288 0.0017844-9.9004e-6 0.0035489-1.1424e-5h0.0053005l0.007075 2.7416e-5 0.0053531 3.2747e-5 0.0036098 2.5132e-5 0.0036555 2.5893e-5 0.0037058 2.5132e-5 0.0037675 2.3609e-5 0.0038391 1.9801e-5 0.0039198 1.447e-5 0.0040089 7.6157e-6h0.0030722 0.0020814l0.0021088-5.331e-6 0.0021362-7.6157e-6 0.0010807-4.5694e-6c8.3772e-4 0 0.0015186-4.8512e-4 0.0015132-0.0010746-5.331e-6 -5.8945e-4 -6.915e-4 -0.0010662-0.0015323-0.0010616l-0.0010769 5.331e-6 -0.0021324 7.6157e-6 -0.0021027 4.5694e-6h-0.0020753-0.0030645l-0.0040013-7.6157e-6 -0.0039137-1.447e-5 -0.0038337-1.9801e-5 -0.0037652-2.2847e-5 -0.003705-2.5132e-5 -0.0036555-2.6655e-5 -0.0036129-2.5132e-5 -0.0053637-3.2747e-5 -0.007091-2.6655e-5h-0.005315l-0.0035588 1.1424e-5 -0.0017851 9.9004e-6c-8.3772e-4 5.331e-6 -0.0015178 4.874e-4 -0.001511 0.0010769 6.8541e-6 5.8945e-4 6.9455e-4 0.0010662 0.0015353 0.0010593z" fill="#51a8db"/>
            </g>
            <g clip-path="url(#a)">
                <path d="m8.2674 0.68456 0.0017844-1.0662e-5 0.0035489-1.1424e-5h0.0053005l0.007075 2.6655e-5 0.0053531 3.2747e-5 0.0036098 2.5132e-5 0.0036555 2.5893e-5 0.0037058 2.5893e-5 0.0037675 2.2847e-5 0.0038391 1.9801e-5 0.0039198 1.447e-5 0.0040089 7.6157e-6h0.0030722 0.0020814l0.0021088-5.331e-6 0.0021362-7.6157e-6 0.0010807-5.331e-6c8.3772e-4 0 0.0015186-4.8436e-4 0.0015132-0.0010746-5.331e-6 -5.9022e-4 -6.915e-4 -0.0010662-0.0015323-0.0010609l-0.0010769 4.5694e-6 -0.0021324 7.6157e-6 -0.0021027 5.331e-6h-0.0020753-0.0030645l-0.0040013-7.6157e-6 -0.0039137-1.447e-5 -0.0038337-1.9801e-5 -0.0037652-2.3609e-5 -0.003705-2.5132e-5 -0.0036555-2.5893e-5 -0.0036129-2.5132e-5 -0.0053637-3.2747e-5 -0.007091-2.7416e-5h-0.005315l-0.0035588 1.1424e-5 -0.0017851 9.9004e-6c-8.3772e-4 4.5694e-6 -0.0015178 4.8664e-4 -0.001511 0.0010769 6.8541e-6 5.9022e-4 6.9455e-4 0.0010662 0.0015353 0.0010593z" fill="#51a8db"/>
            </g>
            <g clip-path="url(#a)">
                <path d="m8.2854 0.27364 0.023088-2.1324e-5s6.2753e-4 -0.010871 0.0057498-0.019354l-0.033654-1.1728e-4c0.0028541 0.006124 0.0044901 0.012745 0.0048169 0.019493z" fill="#51a8db"/>
            </g>
            <g clip-path="url(#a)">
                <path d="m8.2854 0.34159 0.023088-2.0562e-5s6.2753e-4 -0.010545 0.0057498-0.018774l-0.033654-1.1347e-4c0.0028473 0.0059196 0.0044849 0.012348 0.0048169 0.018908z" fill="#51a8db"/>
            </g>
            <g clip-path="url(#a)">
                <path d="m8.2848 0.40029 0.025009-1.6754e-5s6.7932e-4 -0.0085364 0.0062281-0.015199l-0.036455-9.1388e-5c0.002992 0.0045856 0.0047859 0.0098484 0.0052175 0.015307z" fill="#51a8db"/>
            </g>
            <g clip-path="url(#a)">
                <path d="m8.2848 0.45364 0.025009-1.6754e-5s6.7932e-4 -0.0085364 0.0062281-0.015199l-0.036455-9.1388e-5c0.002992 0.0045856 0.0047859 0.0098484 0.0052175 0.015307z" fill="#51a8db"/>
            </g>
            <g clip-path="url(#a)">
                <path d="m8.2833 0.52189 0.027826-1.3708e-5c8.157e-4 -0.0047805 0.0032651-0.0091297 0.0069303-0.012305l-0.040561-7.6157e-5s0.0051756 0.005299 0.0058047 0.012395z" fill="#51a8db"/>
            </g>
            <g clip-path="url(#a)">
                <path d="m8.2832 0.58058 0.027529 2.8102e-4c0.0011086-0.0048183 0.0036974-0.0091689 0.0074032-0.012442l-0.04238-1.7364e-4s0.0068115 0.0052358 0.0074474 0.012334z" fill="#51a8db"/>
            </g>
            <g clip-path="url(#a)">
                <path d="m8.2789 0.61154 0.037126 2.5132e-5c0.0012845-0.0022281 0.0023721-0.0045641 0.0032504-0.0069813l-0.044374-3.9602e-5s0.0015962 0.0027584 0.0039975 0.0069958z" fill="#51a8db"/>
            </g>
            <g clip-path="url(#a)">
                <path d="m8.2789 0.64218 0.037126-1.3937e-4c0.0013098-0.0020902 0.002399-0.0043106 0.0032504-0.0066256l-0.044374-3.8078e-5s0.0015962 0.002683 0.0039975 0.0068031z" fill="#51a8db"/>
            </g>
            <g clip-path="url(#a)">
                <path d="m8.279 0.66848 0.036967 4.9502e-5c0.0011509-0.0019826 0.0021713-0.0040381 0.0030546-0.0061535l-0.043983-3.0463e-5s0.0015848 0.0024187 0.0039617 0.0061344z" fill="#51a8db"/>
            </g>
            <g clip-path="url(#a)">
                <path d="m8.2822 0.091579c0.0035418 5.7473e-4 0.0059471 0.0039119 0.0053724 0.0074537-5.7473e-4 0.0035418-0.0039119 0.0059471-0.0074537 0.0053724-0.0035418-5.7473e-4 -0.0059471-0.0039119-0.0053724-0.0074537 5.7473e-4 -0.0035418 0.0039119-0.0059471 0.0074537-0.0053724z" fill="#51a8db"/>
            </g>
            <g clip-path="url(#a)">
                <path d="m8.2815 0.10396c-0.0030848-3.7766e-6 -0.0055846-0.0025036-0.0055884-0.0055884 3.7766e-6 -0.0030848 0.0025036-0.0055846 0.0055884-0.0055884 0.0030848 3.7766e-6 0.0055846 0.0025036 0.0055884 0.0055884-3.7766e-6 0.0030848-0.0025036 0.0055846-0.0055884 0.0055884zm0-0.0096536c-0.0022441 2.5182e-6 -0.0040627 0.0018211-0.0040653 0.0040653 2.5182e-6 0.0022441 0.0018211 0.0040627 0.0040653 0.0040653 0.002244-2.9368e-6 0.0040623-0.0018213 0.0040653-0.0040653-2.9368e-6 -0.002244-0.0018213-0.0040623-0.0040653-0.0040653z" fill="#3361e1"/>
            </g>
            <g clip-path="url(#a)">
                <path d="m8.284 0.097989c0 0.0015861-0.0012858 0.0028719-0.0028719 0.0028719-7.618e-4 2.0202e-7 -0.0014925-3.0228e-4 -0.0020312-8.4088e-4s-8.4142e-4 -0.0012692-8.4142e-4 -0.002031c0-0.0015865 0.0012861-0.0028726 0.0028726-0.0028726 7.618e-4 -2.6785e-11 0.0014924 3.0268e-4 0.002031 8.4142e-4 5.386e-4 5.3875e-4 8.4108e-4 0.0012694 8.4088e-4 0.0020312z" fill="#3361e1"/>
            </g>
            <g clip-path="url(#a)">
                <path d="m8.2865 0.055119c0.0035418 5.7473e-4 0.0059471 0.0039119 0.0053724 0.0074537-5.7473e-4 0.0035418-0.0039119 0.0059471-0.0074537 0.0053724-0.0035418-5.7473e-4 -0.0059471-0.0039119-0.0053724-0.0074537 5.7473e-4 -0.0035418 0.0039119-0.0059471 0.0074537-0.0053724z" fill="#51a8db"/>
            </g>
            <g clip-path="url(#a)">
                <path d="m8.2858 0.067498c-0.0030848-3.7766e-6 -0.0055846-0.0025036-0.0055884-0.0055884 3.7774e-6 -0.0030847 0.0025037-0.0055843 0.0055884-0.0055876 0.0030847 3.357e-6 0.0055846 0.0025029 0.0055884 0.0055876-3.7766e-6 0.0030848-0.0025036 0.0055846-0.0055884 0.0055884zm0-0.0096529c-0.0022438 2.5174e-6 -0.0040623 0.0018207-0.0040653 0.0040645 2.5182e-6 0.0022441 0.0018211 0.0040627 0.0040653 0.0040653 0.0022441-2.5182e-6 0.0040627-0.0018211 0.0040653-0.0040653-2.9377e-6 -0.0022438-0.0018214-0.004062-0.0040653-0.0040645z" fill="#3361e1"/>
            </g>
            <g clip-path="url(#a)">
                <path d="m8.2883 0.061529c0 0.0015861-0.0012858 0.0028719-0.0028719 0.0028719-0.0015861 0-0.0028719-0.0012858-0.0028719-0.0028719s0.0012858-0.0028719 0.0028719-0.0028719c0.0015861 0 0.0028719 0.0012858 0.0028719 0.0028719z" fill="#3361e1"/>
            </g>
            <g clip-path="url(#a)">
                <path d="m8.2928 0.023472c0 0.0035882-0.0029088 0.0064969-0.0064969 0.0064969-0.0035882 0-0.0064969-0.0029088-0.0064969-0.0064969 0-0.0035882 0.0029088-0.0064969 0.0064969-0.0064969 0.0035882 0 0.0064969 0.0029088 0.0064969 0.0064969z" fill="#51a8db"/>
            </g>
            <g clip-path="url(#a)">
                <path d="m8.2867 0.029441c-0.0030848-3.7766e-6 -0.0055846-0.0025036-0.0055884-0.0055884 3.7766e-6 -0.0030848 0.0025036-0.0055846 0.0055884-0.0055884 0.0030848 3.7766e-6 0.0055846 0.0025036 0.0055884 0.0055884-3.7766e-6 0.0030848-0.0025036 0.0055846-0.0055884 0.0055884zm0-0.0096536c-0.0022443 2.0992e-6 -0.0040632 0.0018209-0.0040653 0.0040653 2.5182e-6 0.0022441 0.0018211 0.0040627 0.0040653 0.0040653 0.002244-2.9368e-6 0.0040623-0.0018213 0.0040653-0.0040653-2.5182e-6 -0.0022441-0.0018211-0.0040627-0.0040653-0.0040653z" fill="#3361e1"/>
            </g>
            <g clip-path="url(#a)">
                <path d="m8.2892 0.023473c0 0.0015861-0.0012858 0.0028719-0.0028719 0.0028719-0.0015861 0-0.0028719-0.0012858-0.0028719-0.0028719-2.0202e-7 -7.618e-4 3.0228e-4 -0.0014925 8.4088e-4 -0.0020312 5.386e-4 -5.3875e-4 0.0012692-8.4142e-4 0.002031-8.4142e-4 7.618e-4 -2.6785e-11 0.0014924 3.0268e-4 0.002031 8.4142e-4 5.386e-4 5.3875e-4 8.4108e-4 0.0012694 8.4088e-4 0.0020312z" fill="#3361e1"/>
            </g>
            <g clip-path="url(#a)">
                <path d="m8.3423 0.022776c0 0.0035882-0.0029088 0.0064969-0.0064969 0.0064969-0.0035882 0-0.0064969-0.0029088-0.0064969-0.0064969 0-0.0035882 0.0029088-0.0064969 0.0064969-0.0064969 0.0035882 0 0.0064969 0.0029088 0.0064969 0.0064969z" fill="#51a8db"/>
            </g>
            <g clip-path="url(#a)">
                <path d="m8.3362 0.028745c-0.003085-3.3578e-6 -0.005585-0.0025034-0.0055884-0.0055884 3.7766e-6 -0.0030848 0.0025036-0.0055846 0.0055884-0.0055884 0.0030848 3.7766e-6 0.0055846 0.0025036 0.0055884 0.0055884-3.3578e-6 0.003085-0.0025034 0.005585-0.0055884 0.0055884zm0-0.0096536c-0.0022441 2.5182e-6 -0.0040627 0.0018211-0.0040653 0.0040653 2.0992e-6 0.0022443 0.0018209 0.0040632 0.0040653 0.0040653 0.0022441-2.5182e-6 0.0040627-0.0018211 0.0040653-0.0040653-2.9368e-6 -0.002244-0.0018213-0.0040623-0.0040653-0.0040653z" fill="#3361e1"/>
            </g>
            <g clip-path="url(#a)">
                <path d="m8.3387 0.022776c0 0.0015861-0.0012858 0.0028719-0.0028719 0.0028719-7.618e-4 2.0202e-7 -0.0014925-3.0228e-4 -0.0020312-8.4088e-4 -5.3875e-4 -5.386e-4 -8.4142e-4 -0.0012692-8.4142e-4 -0.002031-2.7807e-11 -7.618e-4 3.0268e-4 -0.0014924 8.4142e-4 -0.002031 5.3875e-4 -5.386e-4 0.0012694-8.4108e-4 0.0020312-8.4088e-4 0.0015861 1.02e-15 0.0028719 0.0012858 0.0028719 0.0028719z" fill="#3361e1"/>
            </g>
            <g clip-path="url(#a)">
                <path d="m8.3319 0.055119c0.0035418 5.7473e-4 0.0059471 0.0039119 0.0053724 0.0074537-5.7473e-4 0.0035418-0.0039119 0.0059471-0.0074537 0.0053724-0.0035418-5.7473e-4 -0.0059471-0.0039119-0.0053724-0.0074537 5.7473e-4 -0.0035418 0.0039119-0.0059471 0.0074537-0.0053724z" fill="#51a8db"/>
            </g>
            <g clip-path="url(#a)">
                <path d="m8.3312 0.067498c-0.0030851-3.357e-6 -0.0055854-0.0025033-0.0055891-0.0055884 3.7782e-6 -0.003085 0.0025042-0.0055847 0.0055891-0.0055876 0.0030847 3.357e-6 0.0055846 0.0025029 0.0055884 0.0055876-3.7766e-6 0.0030848-0.0025036 0.0055846-0.0055884 0.0055884zm0-0.0096529c-0.0022441 2.0978e-6 -0.0040631 0.0018204-0.004066 0.0040645 2.519e-6 0.0022444 0.0018216 0.0040632 0.004066 0.0040653 0.0022441-2.5182e-6 0.0040627-0.0018211 0.0040653-0.0040653-2.9377e-6 -0.0022438-0.0018214-0.004062-0.0040653-0.0040645z" fill="#3361e1"/>
            </g>
            <g clip-path="url(#a)">
                <path d="m8.3337 0.061529c0 0.0015861-0.0012858 0.0028719-0.0028719 0.0028719-7.618e-4 2.0202e-7 -0.0014925-3.0228e-4 -0.0020312-8.4088e-4 -5.3875e-4 -5.386e-4 -8.4142e-4 -0.0012692-8.4142e-4 -0.002031-2.7805e-11 -7.618e-4 3.0268e-4 -0.0014924 8.4142e-4 -0.002031 5.3875e-4 -5.386e-4 0.0012694-8.4108e-4 0.0020312-8.4088e-4 0.0015861 1.03e-15 0.0028719 0.0012858 0.0028719 0.0028719z" fill="#3361e1"/>
            </g>
            <g clip-path="url(#a)">
                <path d="m8.335 0.099659c0 0.0035882-0.0029088 0.0064969-0.0064969 0.0064969-0.0035882 0-0.0064969-0.0029088-0.0064969-0.0064969 0-0.0035882 0.0029088-0.0064969 0.0064969-0.0064969 0.0035882 0 0.0064969 0.0029088 0.0064969 0.0064969z" fill="#51a8db"/>
            </g>
            <g clip-path="url(#a)">
                <path d="m8.3289 0.10563c-0.0030848-3.7766e-6 -0.0055846-0.0025036-0.0055884-0.0055884 3.7766e-6 -0.0030848 0.0025036-0.0055846 0.0055884-0.0055884 0.0030851 3.357e-6 0.0055854 0.0025033 0.0055891 0.0055884-3.7774e-6 0.0030851-0.002504 0.005585-0.0055891 0.0055884zm0-0.0096536c-0.0022441 2.5182e-6 -0.0040627 0.0018211-0.0040653 0.0040653 2.9368e-6 0.002244 0.0018213 0.0040623 0.0040653 0.0040653 0.0022443-2.5174e-6 0.0040631-0.001821 0.004066-0.0040653-2.519e-6 -0.0022444-0.0018216-0.0040632-0.004066-0.0040653z" fill="#3361e1"/>
            </g>
            <g clip-path="url(#a)">
                <path d="m8.3314 0.099659c2.7807e-11 7.618e-4 -3.0268e-4 0.0014924-8.4142e-4 0.002031-5.3875e-4 5.386e-4 -0.0012694 8.4108e-4 -0.0020312 8.4088e-4 -0.0015861-1.05e-15 -0.0028719-0.0012858-0.0028719-0.0028719-2.0202e-7 -7.618e-4 3.0228e-4 -0.0014925 8.4088e-4 -0.0020312 5.386e-4 -5.3875e-4 0.0012692-8.4142e-4 0.002031-8.4142e-4 0.0015865 2e-17 0.0028726 0.0012861 0.0028726 0.0028726z" fill="#3361e1"/>
            </g>
            <g clip-path="url(#a)">
                <path d="m8.2706 0.92168-0.003223-0.035516v-6.5495e-5l0.0061626-0.71976 0.010005-0.067904 0.0026373 3.884e-4 -0.0099781 0.067722-0.0061603 0.71951 0.0032115 0.035385-0.0026548 2.4142e-4z" fill="#51a8db"/>
            </g>
            <g clip-path="url(#a)">
                <path d="m8.2818 0.92166-0.0031986-0.035317v-5.4833e-5l0.0036601-0.72057 0.0057483-0.10376 0.0022809 1.2642e-4 -0.0057468 0.1037-0.003657 0.72046 0.0031879 0.035208-0.0022748 2.0638e-4z" fill="#51a8db"/>
            </g>
            <g clip-path="url(#a)">
                <path d="m8.2919 0.92163-0.0028399-0.035423 0.0029092-0.72094-0.0029427-0.14167 0.0019032-3.884e-5 0.0029435 0.14169-0.0029092 0.72092 0.0028338 0.035304-0.0018978 1.5155e-4z" fill="#51a8db"/>
            </g>
            <g clip-path="url(#a)">
                <path d="m8.3034 0.92159-0.0015277-0.035354-6.3058e-4 -0.72112 1.6754e-5 -7.9203e-5 0.030668-0.14272 0.0014889 3.1986e-4 -0.030651 0.14264 6.2982e-4 0.72093 0.0015269 0.035322-0.0015216 6.5495e-5z" fill="#51a8db"/>
            </g>
            <g clip-path="url(#a)">
                <path d="m8.3145 0.92157-5.3157e-4 -0.033845-0.003507-0.72246 7.6157e-6 -4.6456e-5 0.016629-0.10373 0.0011286 1.8125e-4 -0.016622 0.10368 0.0035063 0.72235 5.3157e-4 0.03384-0.0011424 1.7516e-5z" fill="#51a8db"/>
            </g>
            <g clip-path="url(#a)">
                <path d="m8.3266 0.92158-0.0016115-0.033846-0.0063081-0.72297 0.0063096-0.065316 7.5776e-4 7.3111e-5 -0.0063073 0.065276 0.0063096 0.72291 0.0016107 0.03383-7.6081e-4 3.5794e-5z" fill="#51a8db"/>
            </g>
        </g>
    </g>
    <defs>
        <clipPath id="b">
            <path d="m8.0928-0.027675h0.44048v1.1893h-0.44048z"/>
        </clipPath>
        <clipPath id="a">
            <path d="m8.0928-0.027675h0.44048v1.1893h-0.44048z"/>
        </clipPath>
    </defs>
</svg>
